<?xml version="1.0" encoding="UTF-8"?>
<svg version="1.1" xmlns="http://www.w3.org/2000/svg" width="963" height="236" viewBox="161 905 963 236">
<path d="M0 0 C413.82 0 827.64 0 1254 0 C1254 413.82 1254 827.64 1254 1254 C840.18 1254 426.36 1254 0 1254 C0 840.18 0 426.36 0 0 Z " fill="#FDFCFD" transform="translate(0,0)"/>
<path d="M0 0 C9.24 0 18.48 0 28 0 C39.21181608 36.77475673 39.21181608 36.77475673 42.71875 48.94921875 C45.56353786 58.81866719 48.47712001 68.62714444 51.80078125 78.34643555 C54.00842489 84.86735102 55.8882727 91.46579399 57.74365234 98.09423828 C59.43951292 104.1248297 61.2680226 110.09956274 63.1875 116.0625 C65.41196036 122.98018597 67.38670796 129.91000604 69 137 C72.01698268 130.85429455 74.06794383 124.63364153 75.93237305 118.06665039 C77.62521795 112.15219 79.52476952 106.32573362 81.5 100.5 C83.68162861 94.05590388 85.75276443 87.603323 87.625 81.0625 C89.4180706 74.79839623 91.50894672 68.70146923 93.75390625 62.58203125 C95.1217712 58.64995551 96.2950735 54.689405 97.4375 50.6875 C99.12106067 44.79804521 100.98923451 39.01391219 103.0625 33.25 C106.63814725 23.30820514 109.7402585 13.27788334 112.38671875 3.046875 C113 1 113 1 114 0 C115.78071246 -0.08726223 117.5648314 -0.10699041 119.34765625 -0.09765625 C120.42724609 -0.09443359 121.50683594 -0.09121094 122.61914062 -0.08789062 C124.32360352 -0.07532227 124.32360352 -0.07532227 126.0625 -0.0625 C127.77276367 -0.05573242 127.77276367 -0.05573242 129.51757812 -0.04882812 C132.34510351 -0.03699747 135.1725264 -0.0205141 138 0 C138.48958333 1.52994792 138.97916667 3.05989583 139.46875 4.58984375 C139.78875977 5.58983398 140.10876953 6.58982422 140.43847656 7.62011719 C141.15406558 9.85641516 141.86955832 12.09274395 142.58496094 14.32910156 C144.44504704 20.1432921 146.30656887 25.95701312 148.171875 31.76953125 C154.32203373 50.94246155 154.32203373 50.94246155 157.078125 59.984375 C158.18294724 63.59845452 159.30889795 67.20579614 160.4375 70.8125 C160.64930908 71.48990234 160.86111816 72.16730469 161.0793457 72.86523438 C162.11183932 76.16607923 163.14653688 79.46620973 164.18359375 82.765625 C166.64267306 90.60242858 169.05400661 98.4523608 171.4375 106.3125 C174.54719555 116.566736 177.74763729 126.79020203 181 137 C181.43699219 135.50726562 181.43699219 135.50726562 181.8828125 133.984375 C184.2052801 126.06394304 186.55291724 118.15196 188.9375 110.25 C191.02481553 103.33048869 193.03549858 96.39281022 195 89.4375 C197.13289385 81.89156955 199.42464145 74.41180134 201.82250977 66.94628906 C203.48800437 61.72415059 205.00569974 56.47811932 206.4375 51.1875 C208.5506003 43.37942119 210.98249325 35.69400075 213.47314453 27.99902344 C215.60096018 21.37993411 217.48432448 14.73895987 219.17578125 7.99609375 C220 5 220 5 222 0 C231.24 0 240.48 0 250 0 C248.11440444 7.54238225 246.20689163 14.7582559 243.6875 22.0625 C243.06789501 23.89285196 242.44942889 25.7235898 241.83203125 27.5546875 C241.52475098 28.46444336 241.2174707 29.37419922 240.90087891 30.31152344 C237.21508508 41.31097101 233.85674761 52.37528746 230.82592773 63.57177734 C229.22530016 69.39633688 227.27276859 75.04608584 225.18359375 80.71484375 C223.65125655 84.96796448 222.33332559 89.270608 221.02734375 93.59765625 C219.89627247 97.34352349 218.73268621 101.07872664 217.5625 104.8125 C217.1328118 106.1861977 216.7031243 107.55989561 216.2734375 108.93359375 C215.46708412 111.50941095 214.65960402 114.08486744 213.8515625 116.66015625 C205.98506913 141.68428656 205.98506913 141.68428656 198.546875 166.83764648 C197.53540452 170.34526854 196.36320743 173.59198142 195 177 C186.09 177 177.18 177 168 177 C165.81282084 170.02981214 163.62570009 163.059606 161.4387207 156.08935547 C160.69689176 153.72508729 159.95503059 151.36082922 159.21313477 148.99658203 C152.1643675 126.53368648 152.1643675 126.53368648 149.3515625 117.5234375 C146.85427235 109.52748342 144.34415169 101.53561612 141.82543945 93.54638672 C141.31800114 91.93589931 140.81116231 90.32522289 140.30493164 88.71435547 C136.87908518 77.81403549 133.35427074 66.95208595 129.71237183 56.12200928 C128.46851317 52.41680994 127.23457932 48.7082996 126 45 C123.07548373 47.92451627 122.4183437 51.56583224 121.25 55.4375 C120.71365422 57.17451393 120.1771927 58.91149211 119.640625 60.6484375 C119.36798828 61.53885742 119.09535156 62.42927734 118.81445312 63.34667969 C117.56263826 67.42483434 116.28347439 71.49421615 115 75.5625 C114.63140869 76.73341187 114.63140869 76.73341187 114.25537109 77.92797852 C112.27556393 84.19133318 110.20280029 90.42132284 108.11157227 96.64819336 C106.34250261 101.93090482 104.66210328 107.23497951 103.0456543 112.56665039 C99.22952701 125.09669896 95.22771188 137.56592377 91.1784668 150.0222168 C90.30132877 152.72188294 89.42699416 155.42244746 88.55273438 158.12304688 C87.98975221 159.85682568 87.42660731 161.59055165 86.86328125 163.32421875 C86.60492996 164.12317062 86.34657867 164.9221225 86.08039856 165.74528503 C85.8364183 166.49409439 85.59243805 167.24290375 85.34106445 168.0144043 C85.1296431 168.66563766 84.91822174 169.31687103 84.70039368 169.98783875 C83.8770056 172.35335067 82.93022909 174.67442728 82 177 C73.09 177 64.18 177 55 177 C54.278125 174.69 53.55625 172.38 52.8125 170 C52.56798096 169.21898926 52.32346191 168.43797852 52.0715332 167.63330078 C50.94903585 164.04725063 49.83207352 160.45971504 48.73046875 156.8671875 C46.7850441 150.54397955 44.77309685 144.2779992 42.5 138.0625 C40.71682703 133.14911317 39.1315139 128.20940655 37.6875 123.1875 C34.80006265 113.16965255 31.58913566 103.26275282 28.39306641 93.33984375 C26.693541 88.05264043 25.00944324 82.76052507 23.32421875 77.46875 C22.65869143 75.37972005 21.99316408 73.2906901 21.32763672 71.20166016 C20.3285182 68.0653052 19.32964179 64.92887434 18.331604 61.79217529 C13.86745622 47.75131183 13.86745622 47.75131183 9.24609375 33.76171875 C7.26490365 27.85856425 5.44245754 21.92934563 3.75 15.9375 C3.36714844 14.61202148 3.36714844 14.61202148 2.9765625 13.25976562 C1.70747675 8.80126702 0.76804953 4.6082972 0 0 Z " fill="#332F59" transform="translate(185,934)"/>
<path d="M0 0 C0.83273437 0.226875 1.66546875 0.45375 2.5234375 0.6875 C15.11884471 4.32516273 27.29499679 12.20687139 36 22 C36.33 22.99 36.66 23.98 37 25 C33.75063515 30.01300038 29.01083204 34.0585698 24.3828125 37.7734375 C22.85896891 38.97175539 22.85896891 38.97175539 22 41 C18.68597405 39.52375208 16.24329651 37.609235 13.5 35.25 C8.04360496 30.83368026 2.41549153 27.80159708 -4 25 C-5.28003906 24.37738281 -5.28003906 24.37738281 -6.5859375 23.7421875 C-20.09273906 18.07804491 -38.28650433 19.10837728 -51.734375 24.4453125 C-57.05875234 26.98012372 -62.10386711 29.70866939 -67 33 C-67.65355469 33.43699219 -68.30710937 33.87398437 -68.98046875 34.32421875 C-81.51951471 43.87914393 -89.65349796 61.81291734 -92 77 C-94.28760605 97.98022947 -89.69451532 118.66891911 -77.05859375 135.6015625 C-67.64609897 146.97261679 -53.57594143 154.76085762 -39 157 C-35.68093618 157.25495369 -32.39008299 157.28737422 -29.0625 157.25 C-28.18005615 157.24250732 -27.2976123 157.23501465 -26.38842773 157.22729492 C-20.38694631 157.12789035 -14.75359548 156.83156123 -9 155 C-7.9790625 154.68160156 -6.958125 154.36320312 -5.90625 154.03515625 C4.46273995 150.43750436 13.49086614 144.97811567 20 136 C22.80881509 137.28721504 24.92788567 138.65863741 27.1640625 140.78515625 C27.72867188 141.31560547 28.29328125 141.84605469 28.875 142.39257812 C29.74125 143.21918945 29.74125 143.21918945 30.625 144.0625 C34.49326309 147.96570729 34.49326309 147.96570729 39 151 C39 154 39 154 36.87109375 156.3828125 C14.2649674 176.98975761 -10.84369109 183.4957368 -41.06445312 182.21582031 C-47.36387554 181.75268912 -53.08280271 180.21803696 -59 178 C-60.01449219 177.649375 -61.02898438 177.29875 -62.07421875 176.9375 C-74.60461174 172.22017558 -85.56618719 164.41681495 -95 155 C-95.62261719 154.38898438 -96.24523437 153.77796875 -96.88671875 153.1484375 C-102.49111788 147.22918449 -106.16492146 140.11997704 -110 133 C-110.48726562 132.154375 -110.97453125 131.30875 -111.4765625 130.4375 C-118.93935229 116.88544002 -120.17731404 101.224852 -120.125 86.0625 C-120.12886719 84.91458984 -120.13273438 83.76667969 -120.13671875 82.58398438 C-120.13542969 81.49537109 -120.13414062 80.40675781 -120.1328125 79.28515625 C-120.13168457 78.29394775 -120.13055664 77.30273926 -120.12939453 76.28149414 C-120 74 -120 74 -119 73 C-118.77360497 71.33569058 -118.56993568 69.66828674 -118.375 68 C-115.27882831 48.87658664 -104.30267919 33.51413796 -91 20 C-90.29359375 19.26910156 -89.5871875 18.53820312 -88.859375 17.78515625 C-79.01187863 8.29472558 -66.19377655 2.14743103 -53 -1 C-51.88882813 -1.29648437 -50.77765625 -1.59296875 -49.6328125 -1.8984375 C-32.97393778 -5.87177961 -16.25451005 -5.17708049 0 0 Z " fill="#7966AE" transform="translate(850,934)"/>
<path d="M0 0 C11.56629253 8.62630645 16.73845666 19.61664077 21 33 C21.33 33.99 21.66 34.98 22 36 C22 42.93 22 49.86 22 57 C-8.69 57 -39.38 57 -71 57 C-65.85511693 73.46362582 -62.96780186 80.76340679 -48.8125 88.8125 C-38.43051632 93.19600422 -24.75856684 92.13891118 -14.453125 88.140625 C-11.36832556 86.7062915 -8.68259823 85.0937352 -6 83 C-5.0925 82.319375 -4.185 81.63875 -3.25 80.9375 C-0.81914427 79.01964237 -0.81914427 79.01964237 1 76 C5.14949326 76.55064366 7.5051044 78.84262261 10.625 81.5 C14.10402974 84.56394994 14.10402974 84.56394994 18 87 C13.62066565 97.35115392 3.82079732 102.92039152 -6 107.3125 C-20.15656027 113.0024358 -37.19406688 114.50615356 -52 110 C-52.87527344 109.74347656 -53.75054688 109.48695312 -54.65234375 109.22265625 C-69.98934594 104.21070462 -81.55309074 94.2596535 -89 80 C-96.3993307 62.35250069 -97.88003466 42.91074211 -90.74609375 24.8203125 C-82.9344383 8.09017303 -70.34953091 -2.22970305 -53.42578125 -9.03515625 C-35.36150858 -14.98281111 -15.05289461 -10.95834904 0 0 Z " fill="#34305A" transform="translate(684,1001)"/>
<path d="M0 0 C9.38579203 7.27114218 14.02130731 17.50965956 16 29 C16.24195755 31.88637821 16.25504085 34.74571951 16.22705078 37.64086914 C16.22734283 38.45172974 16.22763489 39.26259033 16.22793579 40.09802246 C16.22655679 42.74384755 16.21106392 45.38938115 16.1953125 48.03515625 C16.19157727 49.88317206 16.18873271 51.73118987 16.18673706 53.57920837 C16.17914073 58.41740491 16.15952703 63.25547929 16.1373291 68.09362793 C16.11678405 73.04091744 16.10771691 77.9882269 16.09765625 82.93554688 C16.07627699 92.62375992 16.04112789 102.31185064 16 112 C8.74 112 1.48 112 -6 112 C-6 106.39 -6 100.78 -6 95 C-6.66 95 -7.32 95 -8 95 C-8.25136719 95.7425 -8.50273438 96.485 -8.76171875 97.25 C-11.96660045 104.36746599 -18.73775198 108.19150049 -25.75 110.9375 C-36.56223007 114.78968342 -51.11568493 116.58529133 -61.99609375 111.96484375 C-62.65738281 111.64644531 -63.31867187 111.32804687 -64 111 C-64.81597656 110.67128906 -65.63195312 110.34257813 -66.47265625 110.00390625 C-75.56019606 106.04267095 -81.34412965 99.57764467 -85.19287109 90.515625 C-86.61575826 86.08083087 -86.67949175 81.75118895 -86.625 77.125 C-86.61662109 76.15481934 -86.60824219 75.18463867 -86.59960938 74.18505859 C-86.35776283 66.53473182 -84.98074899 60.98978003 -80 55 C-79.443125 54.28070312 -78.88625 53.56140625 -78.3125 52.8203125 C-69.29571773 42.52097068 -55.10108747 37.89665503 -41.82373047 36.82421875 C-29.70136989 36.10249624 -18.68574937 37.87263099 -7 41 C-7.75143313 28.44634528 -7.75143313 28.44634528 -14 18 C-23.52659456 11.24632493 -33.68725697 11.09131611 -45 12 C-52.36307566 13.42379916 -58.17732106 16.32241212 -64.0625 20.92578125 C-66 22 -66 22 -67.953125 22.046875 C-71.08997207 20.44253337 -72.7733377 17.75440474 -74.75 14.9375 C-75.16121094 14.36966797 -75.57242188 13.80183594 -75.99609375 13.21679688 C-77.00695036 11.81805343 -78.00477206 10.40990625 -79 9 C-76.50926458 2.41113596 -68.73668829 -0.43617812 -62.9375 -3.75 C-43.14443799 -12.17257958 -18.12681755 -12.26143745 0 0 Z " fill="#7A68AF" transform="translate(990,999)"/>
<path d="M0 0 C7.59 0 15.18 0 23 0 C23 10.56 23 21.12 23 32 C32.9 32 42.8 32 53 32 C53 38.27 53 44.54 53 51 C43.1 51 33.2 51 23 51 C23.0618237 62.89085795 23.0618237 62.89085795 23.16015625 74.78125 C23.20839029 79.6354196 23.25247259 84.48936424 23.27099609 89.34375 C23.28621104 93.26032022 23.32074091 97.17629943 23.36830902 101.09260559 C23.38307328 102.58196354 23.39103816 104.0714059 23.39188385 105.56083679 C23.40213839 114.57042167 23.47901652 121.91765272 29.76171875 128.98046875 C33.06757107 130.48627583 36.25469089 130.39462856 39.8125 130.3125 C40.49892578 130.31572266 41.18535156 130.31894531 41.89257812 130.32226562 C46.59381094 130.27334078 50.53462735 129.4651092 55 128 C55.33910994 130.04071515 55.67102704 132.08262621 56 134.125 C56.185625 135.26195312 56.37125 136.39890625 56.5625 137.5703125 C56.96956049 140.76137602 57.07809902 143.78817791 57 147 C45.94218664 153.07095635 33.64842282 153.96641845 21.4375 150.9375 C12.2140097 147.47670674 7.29891555 141.86263388 3.19140625 133.0625 C0.8858091 127.13598142 -0.2494507 121.96872323 -0.22705078 115.59594727 C-0.22734283 114.892668 -0.22763489 114.18938873 -0.22793579 113.46479797 C-0.22655446 111.16520377 -0.21105057 108.86594309 -0.1953125 106.56640625 C-0.1915781 104.96215492 -0.18873314 103.35790129 -0.18673706 101.75364685 C-0.17913422 97.54999392 -0.15951484 93.34648119 -0.1373291 89.1428833 C-0.11679819 84.84592586 -0.1077199 80.54894557 -0.09765625 76.25195312 C-0.07626548 67.83456419 -0.04111098 59.41731574 0 51 C-4.62 51 -9.24 51 -14 51 C-14 44.73 -14 38.46 -14 32 C-9.38 32 -4.76 32 0 32 C0 21.44 0 10.88 0 0 Z " fill="#7865AE" transform="translate(1043,961)"/>
<path d="M0 0 C4.269375 0.061875 4.269375 0.061875 8.625 0.125 C8.625 7.715 8.625 15.305 8.625 23.125 C5.386875 23.00125 2.14875 22.8775 -1.1875 22.75 C-11.03583686 22.6184065 -17.94002093 23.83971315 -25.21875 30.91796875 C-33.49999665 40.76209773 -33.97766283 52.50141279 -33.984375 64.73046875 C-33.99938627 66.3066017 -34.0161195 67.88271909 -34.03448486 69.45881653 C-34.0778407 73.57029007 -34.09808613 77.68155157 -34.11322021 81.79321289 C-34.13290705 86.00354387 -34.17486329 90.21364961 -34.21484375 94.42382812 C-34.28980114 102.65752021 -34.33823704 110.89104872 -34.375 119.125 C-41.965 119.125 -49.555 119.125 -57.375 119.125 C-57.375 80.515 -57.375 41.905 -57.375 2.125 C-50.115 2.125 -42.855 2.125 -35.375 2.125 C-35.375 8.395 -35.375 14.665 -35.375 21.125 C-34.715 21.125 -34.055 21.125 -33.375 21.125 C-33.25898437 20.54363281 -33.14296875 19.96226562 -33.0234375 19.36328125 C-30.82828767 11.7860472 -24.55614974 7.52427355 -18.15625 3.5703125 C-11.95500244 0.34775408 -6.84560931 -0.14082539 0 0 Z " fill="#322E58" transform="translate(568.375,990.875)"/>
<path d="M0 0 C7.92 0 15.84 0 24 0 C24 38.94 24 77.88 24 118 C16.08 118 8.16 118 0 118 C0 79.06 0 40.12 0 0 Z " fill="#35315B" transform="translate(452,993)"/>
<path d="M0 0 C0.62173721 9.89598397 -0.44962463 18.6498634 -6.5 26.8125 C-11.78320932 32.44882871 -20.83501709 36.75908886 -28.51171875 37.203125 C-45.14078489 37.52023 -45.14078489 37.52023 -50.734375 32.41796875 C-54.64330801 28.14606339 -56.77215407 24.46073608 -57.3125 18.625 C-56.85276709 13.29209819 -55.2373191 9.57476977 -51.9375 5.375 C-37.1527057 -6.57866348 -17.33811303 -4.2398879 0 0 Z " fill="#FCFBFC" transform="translate(983,1057)"/>
<path d="M0 0 C5.64381919 4.60501376 10.42652235 10.53347331 12.74609375 17.4921875 C12.74609375 19.8021875 12.74609375 22.1121875 12.74609375 24.4921875 C-10.02390625 24.4921875 -32.79390625 24.4921875 -56.25390625 24.4921875 C-53.91255032 13.95608581 -49.59840991 5.44208105 -40.25390625 -0.5078125 C-27.26945584 -6.84715956 -12.50151232 -8.36323008 0 0 Z " fill="#FCFBFC" transform="translate(669.25390625,1015.5078125)"/>
<path d="M0 0 C3.3125 1.625 3.3125 1.625 6 4 C6.94875 4.825 7.8975 5.65 8.875 6.5 C11.83790622 10.2902112 11.69413297 14.37089074 11.48046875 19.01953125 C10.75005683 23.5504605 9.2316133 26.73566151 6 30 C0.90967745 33.13250618 -4.14569194 33.93112395 -10 33 C-15.45202185 30.48368222 -18.7142292 26.47229026 -21 21 C-22.08475986 15.9873597 -21.4115398 12.12644465 -18.875 7.6875 C-13.86465517 0.69534746 -8.39977593 -1.34286793 0 0 Z " fill="#37335C" transform="translate(469,934)"/>
<path d="M0 0 C0.66 1.32 1.32 2.64 2 4 C-6.91 4 -15.82 4 -25 4 C-25 3.34 -25 2.68 -25 2 C-16.75 2 -8.5 2 0 2 C0 1.34 0 0.68 0 0 Z " fill="#2D2952" transform="translate(266,1106)"/>
<path d="M0 0 C0.66 0.66 1.32 1.32 2 2 C-1.465 4.97 -1.465 4.97 -5 8 C-5 5 -5 5 -2.5 2.3125 C-1.675 1.549375 -0.85 0.78625 0 0 Z " fill="#806EB2" transform="translate(757,956)"/>
<path d="M0 0 C-2.13562754 2.13562754 -3.06546739 2.63318342 -6 3 C-6.66 2.34 -7.32 1.68 -8 1 C-4.93251126 -0.86240388 -3.40254489 -1.2151946 0 0 Z " fill="#8877B9" transform="translate(934,995)"/>
</svg>
