<?xml version="1.0" encoding="UTF-8"?>
<svg version="1.1" xmlns="http://www.w3.org/2000/svg" width="1254" height="1254">
<path d="M0 0 C413.82 0 827.64 0 1254 0 C1254 413.82 1254 827.64 1254 1254 C840.18 1254 426.36 1254 0 1254 C0 840.18 0 426.36 0 0 Z " fill="#FDFCFD" transform="translate(0,0)"/>
<path d="M0 0 C11.29608867 0.46485962 21.63135521 11.98790425 29.51123047 19.10742188 C31.46438876 20.86851468 33.44818003 22.59244152 35.4375 24.3125 C39.17565411 27.59044939 42.87013445 30.91630854 46.55859375 34.25 C48.23158016 35.75747025 49.91099244 37.25784877 51.59765625 38.75 C56.12235159 42.76557748 60.4985151 46.88392616 64.75 51.1875 C68.46741138 54.9467977 72.25539403 58.50996623 76.28125 61.93359375 C78.8252465 64.18114998 81.15670881 66.61312318 83.484375 69.08203125 C87.53714039 72.73916954 91.14659747 72.8307582 96.39160156 72.72216797 C100.80725612 72.46423316 105.13561031 71.82525655 109.5 71.125 C123.07437241 68.98867181 136.40707306 68.3594511 150.125 68.375 C150.94381653 68.37493958 151.76263306 68.37487915 152.60626221 68.37481689 C164.88602788 68.38771991 176.95367928 68.82039934 189.125 70.5625 C190.51557083 70.75559884 191.90619543 70.94831089 193.296875 71.140625 C194.60140625 71.32109375 195.9059375 71.5015625 197.25 71.6875 C209.83894105 73.56238187 209.83894105 73.56238187 221.125 68.5625 C223.90969135 66.08831405 226.48714529 63.43959416 229.0625 60.75 C233.61422274 56.04817195 238.20701968 51.52834039 243.17163086 47.26196289 C246.34865248 44.49790246 249.38149763 41.58375125 252.4375 38.6875 C257.60024765 33.83277537 262.851292 29.18711569 268.39453125 24.765625 C270.36207791 23.17807662 272.2886429 21.57497207 274.19921875 19.921875 C296.38120806 0.73790702 296.38120806 0.73790702 306.0546875 0.0390625 C309.37685603 0.879007 310.33850722 2.71468698 312.125 5.5625 C312.86000346 8.12791748 313.39846205 10.4512668 313.8125 13.0625 C314.04324219 14.3515625 314.27398438 15.640625 314.51171875 16.96875 C316.41044149 30.18167854 316.28324557 43.43515033 316.25 56.75 C316.24911377 57.77073608 316.24822754 58.79147217 316.24731445 59.84313965 C316.23322787 73.65936759 315.98839129 87.4278438 315.35546875 101.23046875 C314.45321942 121.0121962 316.91163528 136.37314703 325.3125 154.375 C329.61998042 163.79426215 332.36667818 175.18892878 332.125 185.5625 C333.20394531 185.30855469 334.28289063 185.05460938 335.39453125 184.79296875 C344.47343518 182.69610608 353.52374421 180.90318876 362.75317383 179.60229492 C367.09014456 178.97189678 370.96042298 177.97041098 375.125 176.5625 C377.609375 176.296875 377.609375 176.296875 379.875 176.3125 C380.63296875 176.30734375 381.3909375 176.3021875 382.171875 176.296875 C384.125 176.5625 384.125 176.5625 386.125 178.5625 C386.4375 181 386.4375 181 386.125 183.5625 C383.93792686 186.36586568 382.06401969 187.0693555 378.62524414 187.72924805 C377.71742691 187.90920822 376.80960968 188.0891684 375.87428284 188.27458191 C374.89612106 188.45596207 373.91795929 188.63734222 372.91015625 188.82421875 C371.90286972 189.01973831 370.89558319 189.21525787 369.85777283 189.41670227 C367.72791945 189.82791143 365.59698406 190.23354966 363.46508789 190.6340332 C360.2015367 191.24736204 356.94147252 191.87699644 353.68164062 192.50976562 C351.61216291 192.90720796 349.54250694 193.30372346 347.47265625 193.69921875 C346.49651871 193.8866716 345.52038116 194.07412445 344.5146637 194.26725769 C343.60369431 194.43776138 342.69272491 194.60826508 341.75415039 194.78393555 C340.95489639 194.93477097 340.1556424 195.08560638 339.33216858 195.24101257 C337.125 195.5625 337.125 195.5625 333.125 195.5625 C333.13660156 196.76648438 333.14820313 197.97046875 333.16015625 199.2109375 C333.16953434 200.78645679 333.17863452 202.36197775 333.1875 203.9375 C333.19587891 204.7315625 333.20425781 205.525625 333.21289062 206.34375 C333.23828125 212.3359375 333.23828125 212.3359375 332.125 214.5625 C333.14078125 214.68367187 334.1565625 214.80484375 335.203125 214.9296875 C342.3814799 215.79859549 349.5184338 216.74082808 356.640625 218 C359.54505375 218.46887639 362.44212899 218.87371455 365.359375 219.25 C366.29692627 219.37383057 367.23447754 219.49766113 368.20043945 219.62524414 C370.07537973 219.87074728 371.95152503 220.10725419 373.82885742 220.33374023 C382.45090715 221.47807637 382.45090715 221.47807637 386.125 224.5625 C386.5625 227.625 386.5625 227.625 386.125 230.5625 C384.125 232.5625 384.125 232.5625 381.4375 232.609375 C379.7978125 232.46242188 379.7978125 232.46242188 378.125 232.3125 C377.0525 232.22484375 375.98 232.1371875 374.875 232.046875 C371.11692061 231.56145641 367.46959569 230.84229391 363.76171875 230.07519531 C359.40772343 229.22858511 355.01979515 228.65323317 350.625 228.0625 C343.7313544 227.13587999 336.93120469 226.00269584 330.125 224.5625 C330.03871338 225.66984497 330.03871338 225.66984497 329.95068359 226.79956055 C329.375 234.1875 329.375 234.1875 327.125 237.5625 C325.84625 237.3975 324.5675 237.2325 323.25 237.0625 C301.28176818 234.98358541 281.68526083 237.68271454 263.6875 251.5 C251.31754401 262.0883584 244.80910782 274.38192734 243.5 290.5625 C243.36821055 292.56206409 243.24088545 294.56195118 243.125 296.5625 C245.105 296.5625 247.085 296.5625 249.125 296.5625 C249.07859375 295.97984375 249.0321875 295.3971875 248.984375 294.796875 C248.42133592 282.00784458 253.81670274 271.33006602 261.74609375 261.56640625 C270.43308823 252.21278389 284.67390998 244.17793929 297.59179688 243.41723633 C319.63021451 243.23540765 339.41272929 244.35159741 356.125 260.5625 C364.45183786 269.26921185 370.33317414 280.07587193 370.1875 292.3125 C370.17847656 293.29734375 370.16945313 294.2821875 370.16015625 295.296875 C370.14855469 296.04453125 370.13695312 296.7921875 370.125 297.5625 C370.77984375 297.55202637 371.4346875 297.54155273 372.109375 297.53076172 C375.11454332 297.48884641 378.11964984 297.46306191 381.125 297.4375 C382.15496094 297.42074219 383.18492187 297.40398437 384.24609375 297.38671875 C390.27373033 297.34832616 395.3586894 297.79743107 401.125 299.5625 C402.06085937 299.83449219 402.99671875 300.10648437 403.9609375 300.38671875 C410.90447824 302.7475226 416.34264153 306.0878127 422.125 310.5625 C423.7028125 311.7071875 423.7028125 311.7071875 425.3125 312.875 C433.83692437 321.02056107 440.72226263 333.3229965 441.24525452 345.3213501 C441.2419236 346.90686676 441.2419236 346.90686676 441.23852539 348.52441406 C441.23844986 349.72535706 441.23837433 350.92630005 441.23829651 352.16363525 C441.23313522 353.45541687 441.22797394 354.74719849 441.22265625 356.078125 C441.22079017 357.41762235 441.21936716 358.75712038 441.21836853 360.09661865 C441.21455835 363.61472472 441.20474091 367.13278921 441.19366455 370.65087891 C441.18341817 374.24380939 441.178864 377.83674661 441.17382812 381.4296875 C441.16311725 388.47397529 441.14605887 395.51823493 441.125 402.5625 C442.38569637 401.63104335 443.64442285 400.69692024 444.90234375 399.76171875 C445.60351318 399.24182373 446.30468262 398.72192871 447.02709961 398.1862793 C458.82731445 389.05288829 466.64834616 375.27179769 469.125 360.5625 C470.19409887 341.42725006 469.49599993 323.41979039 462.125 305.5625 C461.45788581 303.89601241 460.79121619 302.22934679 460.125 300.5625 C459.795 299.75039063 459.465 298.93828125 459.125 298.1015625 C457.73356721 294.56862768 456.48702113 290.98800775 455.25 287.3984375 C454.34042205 285.10554309 453.35141318 283.01833284 452.21875 280.8359375 C440.22586775 257.21106992 434.17280015 226.1077581 441.73828125 200.33203125 C449.51101376 178.19626283 464.05296456 160.9481684 485.125 150.5625 C505.06097318 141.72953781 527.36363164 140.26390501 548.07519531 147.73242188 C562.37486095 153.52313926 575.32183588 165.101222 582.5625 178.75 C585.32922905 185.63073485 585.420928 193.51006941 583.171875 200.54296875 C580.95448951 205.29350666 578.64761959 208.73586276 574.125 211.5625 C573.42375 212.14 572.7225 212.7175 572 213.3125 C566.80084864 215.57300059 561.10508132 215.67631777 555.7734375 213.68359375 C550.7571575 210.83727757 548.63441268 207.67094725 546.125 202.5625 C541.81721059 195.38285098 535.1536543 189.09520872 526.8203125 186.9765625 C515.30974917 185.20827306 505.47628176 186.52301899 495.77734375 193.171875 C488.5737557 199.04246265 483.00338456 207.50184043 481.83764648 216.87231445 C481.72299435 219.33846932 481.71542279 221.7815713 481.75 224.25 C481.73839844 225.05888672 481.72679687 225.86777344 481.71484375 226.70117188 C481.7721019 238.90670045 485.75704137 249.94919237 490.3125 261.125 C491.04279419 262.95417969 491.04279419 262.95417969 491.7878418 264.8203125 C493.96287844 270.26774985 496.17717262 275.69878472 498.4140625 281.12109375 C510.76211465 311.18072861 517.90114967 342.3033638 510.125 374.5625 C509.88136719 375.76648438 509.63773438 376.97046875 509.38671875 378.2109375 C505.67235612 394.72312775 496.75521915 408.64269519 486.125 421.5625 C485.465 422.5525 484.805 423.5425 484.125 424.5625 C512.175 424.5625 540.225 424.5625 569.125 424.5625 C569.455 422.9125 569.785 421.2625 570.125 419.5625 C573.73581692 413.94218496 578.57065889 409.25904167 585.125 407.5625 C592.74233201 406.61708645 599.6171991 406.61002403 606.15625 410.953125 C611.84283558 415.60168306 615.77967048 419.91693519 616.91015625 427.34765625 C617.78373601 436.35346945 616.11845414 442.57340976 611.4375 450.375 C605.13366684 456.33808542 598.0500813 458.89375107 589.5 458.78125 C583.52417059 458.23084466 578.36501372 455.80251372 574.125 451.5625 C573.83244229 450.92207764 573.53988459 450.28165527 573.23846149 449.62182617 C572.1066325 447.16908888 571.0521986 445.46766764 569.125 443.5625 C565.0435288 442.34501418 561.04064655 442.49279707 556.80737305 442.5625 C555.55818588 442.55157822 554.30899872 442.54065643 553.0219574 442.52940369 C549.60372332 442.50729027 546.18905872 442.5204726 542.77110648 442.5494194 C539.19689127 442.57132398 535.62297579 442.548022 532.04878235 442.52954102 C525.28425587 442.50141941 518.52043877 442.5138797 511.75593263 442.54096508 C502.61259569 442.57522599 493.46946772 442.54670922 484.32613659 442.52173042 C469.92538977 442.48404203 455.52615409 442.53015149 441.125 442.5625 C441.125 474.9025 441.125 507.2425 441.125 540.5625 C483.365 540.5625 525.605 540.5625 569.125 540.5625 C569.455 539.2425 569.785 537.9225 570.125 536.5625 C573.6121869 530.29801781 578.25326043 525.79837944 585.125 523.5625 C593.75759908 522.24272921 600.99681292 523.42297381 608.125 528.5625 C610.47657158 530.70482157 612.3320938 532.9411883 614.125 535.5625 C614.74375 536.42875 615.3625 537.295 616 538.1875 C618.4373031 545.4994093 618.25411282 553.07354932 614.9375 560.0625 C611.18606481 566.53844119 606.44328439 571.48583963 599.125 573.5625 C592.93673559 574.22624667 585.85125121 574.97107204 580.125 572.0625 C575.10134201 567.87611834 570.73946101 564.02034405 569.125 557.5625 C526.885 557.5625 484.645 557.5625 441.125 557.5625 C441.125 591.8825 441.125 626.2025 441.125 661.5625 C483.365 661.5625 525.605 661.5625 569.125 661.5625 C569.455 659.9125 569.785 658.2625 570.125 656.5625 C573.8538076 651.08957272 578.2814094 646.54574411 584.8125 644.875 C594.16585239 643.99260826 601.45759261 644.11661149 609.13671875 650.140625 C614.61880945 655.24345156 617.22251237 660.32089983 617.5625 667.875 C617.29349041 675.71931978 615.16870664 682.05984632 609.375 687.5 C603.01023026 692.46991229 597.0170214 694.23051871 588.93359375 693.97265625 C581.38310261 692.87001151 575.81742165 689.03355429 571.18359375 683.11328125 C570.125 681.5625 570.125 681.5625 569.125 679.5625 C526.885 679.2325 484.645 678.9025 441.125 678.5625 C441.125 694.7325 441.125 710.9025 441.125 727.5625 C437.5907214 741.6996144 437.5907214 741.6996144 434.5 747.6875 C434.15517578 748.36345215 433.81035156 749.0394043 433.45507812 749.73583984 C425.43542506 764.81408341 412.27084715 773.82504702 396.25 778.8125 C394.21283835 779.41137644 392.17161411 779.99676927 390.125 780.5625 C389.56422988 780.74116724 389.00345976 780.91983447 388.42569661 781.10391587 C385.10292142 781.76622483 381.80485025 781.70358413 378.43104172 781.69672108 C377.64781449 781.69907331 376.86458727 781.70142554 376.05762589 781.70384905 C373.41720797 781.71053809 370.77683926 781.71008085 368.13641357 781.70967102 C366.2304563 781.71296973 364.32449973 781.71669531 362.41854405 781.7208125 C357.16813998 781.73084029 351.91774733 781.73455057 346.66733503 781.73720181 C341.00923647 781.74110269 335.35114698 781.75068135 329.6930542 781.75941467 C316.02007068 781.77918784 302.34708642 781.78924754 288.67409217 781.79814246 C282.23474636 781.802525 275.79540137 781.807892 269.35605621 781.81313133 C247.94777438 781.83014641 226.53949387 781.84466438 205.13120651 781.85188007 C203.74655384 781.85235483 202.36190117 781.85283072 200.9772485 781.85330774 C199.94726722 781.8536623 199.94726722 781.8536623 198.89647823 781.85402403 C195.41763913 781.8552252 191.93880003 781.85644066 188.45996094 781.85766602 C187.42438596 781.85802624 187.42438596 781.85802624 186.36789027 781.85839374 C164.00159393 781.86628052 141.63535072 781.88969804 119.26907757 781.92222196 C95.61238916 781.95655937 71.95574125 781.97623385 48.29902577 781.97952431 C35.40775944 781.98168811 22.51657115 781.99041757 9.62532806 782.01598549 C-1.35641189 782.03771575 -12.33805486 782.04573151 -23.31981388 782.03601871 C-28.91973653 782.03148046 -34.51945916 782.0333327 -40.11935425 782.05278015 C-45.25445247 782.07045875 -50.38920545 782.06937595 -55.52430758 782.05388286 C-57.37372443 782.05151389 -59.22316548 782.05579309 -61.07254544 782.06771151 C-82.15088598 782.19504489 -101.24353105 777.81924196 -116.875 762.5625 C-137.82735388 737.99512732 -133.875 711.28811637 -133.875 678.5625 C-169.845 678.5625 -205.815 678.5625 -242.875 678.5625 C-243.865 681.0375 -243.865 681.0375 -244.875 683.5625 C-249.78594052 689.15551559 -254.87465553 693.00335605 -262.3203125 693.8359375 C-270.4157866 694.14276305 -276.54534928 692.3258251 -282.7265625 686.953125 C-288.62379376 680.62013773 -290.50243306 673.79214729 -290.21875 665.234375 C-289.24788073 657.68807298 -284.65521806 652.25258921 -278.875 647.5625 C-272.62017229 644.04935199 -264.89622443 643.57305916 -257.875 644.5625 C-251.06796497 647.26217395 -246.41405957 651.19219277 -242.875 657.5625 C-242.875 658.8825 -242.875 660.2025 -242.875 661.5625 C-206.905 661.5625 -170.935 661.5625 -133.875 661.5625 C-133.875 627.5725 -133.875 593.5825 -133.875 558.5625 C-169.845 558.5625 -205.815 558.5625 -242.875 558.5625 C-243.865 561.0375 -243.865 561.0375 -244.875 563.5625 C-248.5580144 569.03121835 -252.43814931 571.91178901 -258.875 573.5625 C-266.25438273 574.46592557 -273.07828932 574.76623617 -279.19921875 570.11328125 C-286.18779002 563.64600201 -289.94804861 557.85008418 -290.375 548.1875 C-290.16856766 540.68712508 -288.08022372 535.92927734 -282.9375 530.52734375 C-276.32028658 524.42396698 -271.06172425 523.06983642 -262.09375 523.26171875 C-253.86641067 524.03053565 -249.68377609 528.35779506 -244.44140625 534.44140625 C-242.875 536.5625 -242.875 536.5625 -241.875 539.5625 C-206.235 539.8925 -170.595 540.2225 -133.875 540.5625 C-133.875 508.2225 -133.875 475.8825 -133.875 442.5625 C-169.845 442.5625 -205.815 442.5625 -242.875 442.5625 C-243.535 444.5425 -244.195 446.5225 -244.875 448.5625 C-246.6796875 450.609375 -246.6796875 450.609375 -248.75 452.3125 C-249.42804688 452.88484375 -250.10609375 453.4571875 -250.8046875 454.046875 C-257.26977061 458.77980377 -264.16431264 458.09968615 -271.875 457.5625 C-274.75932315 456.90935575 -276.29460546 456.13317493 -278.875 454.5625 C-280.1434375 453.82 -280.1434375 453.82 -281.4375 453.0625 C-287.25306105 447.097822 -290.25469292 440.80261017 -290.5625 432.4375 C-290.13515902 423.74823349 -287.20744917 418.49781228 -280.9375 412.625 C-274.40025278 407.37576059 -268.06385883 406.82023502 -259.875 407.5625 C-253.83674341 409.30233665 -249.03941618 412.90016449 -244.875 417.5625 C-243.885 419.5425 -242.895 421.5225 -241.875 423.5625 C-206.235 423.8925 -170.595 424.2225 -133.875 424.5625 C-134.03277012 399.28400441 -134.03277012 399.28400441 -134.23535156 374.00585938 C-134.25341797 369.06347656 -134.25341797 369.06347656 -134.2567749 366.73352051 C-134.26282833 365.14167782 -134.27670631 363.54985084 -134.29730225 361.95812988 C-134.52887679 343.08084372 -131.52250938 327.76737323 -118.375 313.375 C-107.87577247 303.32391023 -93.71486188 297.15246154 -79.17578125 297.29882812 C-78.21027344 297.32396484 -77.24476563 297.34910156 -76.25 297.375 C-75.24582031 297.38853516 -74.24164063 297.40207031 -73.20703125 297.41601562 C-70.76243136 297.45093848 -68.31902266 297.49997252 -65.875 297.5625 C-65.89312744 296.83804687 -65.91125488 296.11359375 -65.92993164 295.3671875 C-66.13649664 281.2027306 -60.83946318 269.84037925 -51.3125 259.375 C-38.17793695 247.02648223 -20.5042757 242.14549048 -2.8359375 242.27734375 C14.78638974 243.54601228 31.12849134 249.89390234 43.4375 262.8125 C51.87237017 272.89277606 55.7054116 284.50323909 55.125 297.5625 C57.105 297.5625 59.085 297.5625 61.125 297.5625 C59.96901522 283.00054244 57.0081687 271.50224288 48.125 259.5625 C47.3825 258.53125 46.64 257.5 45.875 256.4375 C34.53440516 244.58142358 16.68116636 236.94039977 0.3359375 236.28515625 C-8.0861667 236.14413806 -16.51462376 236.51040771 -24.875 237.5625 C-25.21372513 236.14711283 -25.54574624 234.73012037 -25.875 233.3125 C-26.060625 232.52359375 -26.24625 231.7346875 -26.4375 230.921875 C-26.875 228.5625 -26.875 228.5625 -26.875 224.5625 C-34.632803 225.50993284 -42.3256655 226.58178291 -50 228.0625 C-73.67957543 232.59603532 -73.67957543 232.59603532 -82.875 231.5625 C-83.535 230.9025 -84.195 230.2425 -84.875 229.5625 C-84.54528521 226.26535207 -84.2523161 224.9398161 -81.875 222.5625 C-78.97571992 221.80436343 -76.12182549 221.14930821 -73.1875 220.5625 C-72.33188477 220.38662354 -71.47626953 220.21074707 -70.59472656 220.02954102 C-64.26008066 218.75966274 -57.94538983 217.84028616 -51.53125 217.06640625 C-46.27213441 216.34159224 -41.11235974 215.25442686 -35.921875 214.1484375 C-32.875 213.5625 -32.875 213.5625 -29.875 213.5625 C-29.875 207.6225 -29.875 201.6825 -29.875 195.5625 C-31.36902344 195.45679688 -32.86304688 195.35109375 -34.40234375 195.2421875 C-41.15076799 194.62643565 -47.75894367 193.39854273 -54.40014648 192.08837891 C-56.43653553 191.68768977 -58.47487434 191.29838207 -60.51367188 190.91015625 C-80.35901133 187.07848867 -80.35901133 187.07848867 -83.875 183.5625 C-84.0625 180.5 -84.0625 180.5 -83.875 177.5625 C-82.875 176.5625 -82.875 176.5625 -79.546875 176.38671875 C-73.98779117 176.45973432 -68.59072322 177.42549892 -63.125 178.375 C-62.05822021 178.55587158 -60.99144043 178.73674316 -59.89233398 178.9230957 C-53.60290352 180.01325083 -47.45903146 181.29005661 -41.30078125 182.96875 C-37.51507481 183.89536414 -33.7546248 184.23919793 -29.875 184.5625 C-28.88725147 180.71748749 -27.94202372 176.91064036 -27.19140625 173.01171875 C-24.54221511 159.79321582 -19.31952193 147.7042568 -14.04833984 135.33886719 C-13.6611377 134.42266602 -13.27393555 133.50646484 -12.875 132.5625 C-12.49899658 131.73137695 -12.12299316 130.90025391 -11.7355957 130.04394531 C-10.76268497 127.23865035 -10.6315517 125.02692642 -10.64453125 122.0625 C-10.64646484 121.00933594 -10.64839844 119.95617187 -10.65039062 118.87109375 C-10.66263672 117.77925781 -10.67488281 116.68742187 -10.6875 115.5625 C-10.68814453 114.50160156 -10.68878906 113.44070312 -10.68945312 112.34765625 C-10.7178499 107.14158151 -10.89253599 102.00454348 -11.37109375 96.8203125 C-12.26451882 86.05401586 -12.118521 75.23341823 -12.125 64.4375 C-12.12600708 63.27963989 -12.12701416 62.12177979 -12.12805176 60.92883301 C-12.12024612 47.68265733 -12.07842303 34.49109693 -10.625 21.3125 C-10.51575195 20.29397949 -10.40650391 19.27545898 -10.29394531 18.22607422 C-9.40908819 11.55713134 -7.64880368 1.49650507 0 0 Z " fill="#7967AF" transform="translate(474.875,114.4375)"/>
<path d="M0 0 C11.29608867 0.46485962 21.63135521 11.98790425 29.51123047 19.10742188 C31.46438876 20.86851468 33.44818003 22.59244152 35.4375 24.3125 C39.17565411 27.59044939 42.87013445 30.91630854 46.55859375 34.25 C48.23158016 35.75747025 49.91099244 37.25784877 51.59765625 38.75 C56.12235159 42.76557748 60.4985151 46.88392616 64.75 51.1875 C68.46741138 54.9467977 72.25539403 58.50996623 76.28125 61.93359375 C78.8252465 64.18114998 81.15670881 66.61312318 83.484375 69.08203125 C87.53714039 72.73916954 91.14659747 72.8307582 96.39160156 72.72216797 C100.80725612 72.46423316 105.13561031 71.82525655 109.5 71.125 C123.07437241 68.98867181 136.40707306 68.3594511 150.125 68.375 C150.94381653 68.37493958 151.76263306 68.37487915 152.60626221 68.37481689 C164.88602788 68.38771991 176.95367928 68.82039934 189.125 70.5625 C190.51557083 70.75559884 191.90619543 70.94831089 193.296875 71.140625 C194.60140625 71.32109375 195.9059375 71.5015625 197.25 71.6875 C209.83894105 73.56238187 209.83894105 73.56238187 221.125 68.5625 C223.90969135 66.08831405 226.48714529 63.43959416 229.0625 60.75 C233.61422274 56.04817195 238.20701968 51.52834039 243.17163086 47.26196289 C246.34865248 44.49790246 249.38149763 41.58375125 252.4375 38.6875 C257.60024765 33.83277537 262.851292 29.18711569 268.39453125 24.765625 C270.36207791 23.17807662 272.2886429 21.57497207 274.19921875 19.921875 C296.38120806 0.73790702 296.38120806 0.73790702 306.0546875 0.0390625 C309.37685603 0.879007 310.33850722 2.71468698 312.125 5.5625 C312.86000346 8.12791748 313.39846205 10.4512668 313.8125 13.0625 C314.04324219 14.3515625 314.27398438 15.640625 314.51171875 16.96875 C316.41044149 30.18167854 316.28324557 43.43515033 316.25 56.75 C316.24911377 57.77073608 316.24822754 58.79147217 316.24731445 59.84313965 C316.23322787 73.65936759 315.98839129 87.4278438 315.35546875 101.23046875 C314.45321942 121.0121962 316.91163528 136.37314703 325.3125 154.375 C329.61998042 163.79426215 332.36667818 175.18892878 332.125 185.5625 C333.20394531 185.30855469 334.28289062 185.05460938 335.39453125 184.79296875 C344.47343518 182.69610608 353.52374421 180.90318876 362.75317383 179.60229492 C367.09014456 178.97189678 370.96042298 177.97041098 375.125 176.5625 C377.609375 176.296875 377.609375 176.296875 379.875 176.3125 C380.63296875 176.30734375 381.3909375 176.3021875 382.171875 176.296875 C384.125 176.5625 384.125 176.5625 386.125 178.5625 C386.4375 181 386.4375 181 386.125 183.5625 C383.93792686 186.36586568 382.06401969 187.0693555 378.62524414 187.72924805 C377.71742691 187.90920822 376.80960968 188.0891684 375.87428284 188.27458191 C374.40704018 188.54665215 374.40704018 188.54665215 372.91015625 188.82421875 C371.39922646 189.11749809 371.39922646 189.11749809 369.85777283 189.41670227 C367.72791945 189.82791143 365.59698406 190.23354966 363.46508789 190.6340332 C360.2015367 191.24736204 356.94147252 191.87699644 353.68164062 192.50976562 C351.61216291 192.90720796 349.54250694 193.30372346 347.47265625 193.69921875 C346.49651871 193.8866716 345.52038116 194.07412445 344.5146637 194.26725769 C343.60369431 194.43776138 342.69272491 194.60826508 341.75415039 194.78393555 C340.95489639 194.93477097 340.1556424 195.08560638 339.33216858 195.24101257 C337.125 195.5625 337.125 195.5625 333.125 195.5625 C333.13660156 196.76648438 333.14820313 197.97046875 333.16015625 199.2109375 C333.16953434 200.78645679 333.17863452 202.36197775 333.1875 203.9375 C333.19587891 204.7315625 333.20425781 205.525625 333.21289062 206.34375 C333.23828125 212.3359375 333.23828125 212.3359375 332.125 214.5625 C333.14078125 214.68367187 334.1565625 214.80484375 335.203125 214.9296875 C342.3814799 215.79859549 349.5184338 216.74082808 356.640625 218 C359.54505375 218.46887639 362.44212899 218.87371455 365.359375 219.25 C366.29692627 219.37383057 367.23447754 219.49766113 368.20043945 219.62524414 C370.07537973 219.87074728 371.95152503 220.10725419 373.82885742 220.33374023 C382.45090715 221.47807637 382.45090715 221.47807637 386.125 224.5625 C386.5625 227.625 386.5625 227.625 386.125 230.5625 C384.125 232.5625 384.125 232.5625 381.4375 232.609375 C379.7978125 232.46242188 379.7978125 232.46242188 378.125 232.3125 C377.0525 232.22484375 375.98 232.1371875 374.875 232.046875 C371.11692061 231.56145641 367.46959569 230.84229391 363.76171875 230.07519531 C359.40772343 229.22858511 355.01979515 228.65323317 350.625 228.0625 C343.7313544 227.13587999 336.93120469 226.00269584 330.125 224.5625 C330.06747559 225.30072998 330.00995117 226.03895996 329.95068359 226.79956055 C329.375 234.1875 329.375 234.1875 327.125 237.5625 C325.84625 237.3975 324.5675 237.2325 323.25 237.0625 C301.28176818 234.98358541 281.68526083 237.68271454 263.6875 251.5 C251.31754401 262.0883584 244.80910782 274.38192734 243.5 290.5625 C243.36821055 292.56206409 243.24088545 294.56195118 243.125 296.5625 C245.105 296.5625 247.085 296.5625 249.125 296.5625 C249.07859375 295.97984375 249.0321875 295.3971875 248.984375 294.796875 C248.42133592 282.00784458 253.81670274 271.33006602 261.74609375 261.56640625 C270.43308823 252.21278389 284.67390998 244.17793929 297.59179688 243.41723633 C319.63021451 243.23540765 339.41272929 244.35159741 356.125 260.5625 C366.44472552 271.35301592 370.49955564 283.05881866 370.26953125 297.734375 C369.88806781 307.83800131 367.50999811 315.02330591 360.3515625 322.38671875 C354.5693045 327.60085096 349.54314409 329.02257193 341.7890625 328.88671875 C338.05934733 328.43280913 335.89418456 327.04766563 333.125 324.5625 C330.70020264 320.92530395 330.73837423 318.70546518 330.5 314.375 C330.42523437 313.10269531 330.35046875 311.83039063 330.2734375 310.51953125 C330.22445313 309.54371094 330.17546875 308.56789063 330.125 307.5625 C329.465 307.5625 328.805 307.5625 328.125 307.5625 C328.09921875 308.57570313 328.0734375 309.58890625 328.046875 310.6328125 C327.99055819 311.98441597 327.93321167 313.33597681 327.875 314.6875 C327.86082031 315.35265625 327.84664062 316.0178125 327.83203125 316.703125 C327.58511285 321.74026037 326.27065102 324.66487766 323.125 328.5625 C317.3774757 332.99288332 313.33624231 334.05139778 306.125 333.5625 C300.35143141 331.67115857 296.31133239 329.00809805 293.01953125 323.8203125 C291.44029739 319.83429865 291.65751448 315.60576289 291.46875 311.36328125 C291.3553125 310.43902344 291.241875 309.51476562 291.125 308.5625 C290.465 308.2325 289.805 307.9025 289.125 307.5625 C289.13853516 309.08230469 289.13853516 309.08230469 289.15234375 310.6328125 C288.9990442 322.82240373 288.9990442 322.82240373 285.3125 326.5 C280.35466607 329.73381349 274.78725774 329.42316318 269.125 328.5625 C263.92148234 327.13373752 261.38919135 325.00732004 258.60766602 320.47094727 C255.44613146 316.83221557 252.78056193 316.00794577 248.00325012 315.63639641 C243.57102514 315.47182484 239.14925294 315.48714899 234.71484375 315.52734375 C232.71532148 315.51649817 230.71581519 315.50225106 228.71633911 315.48486328 C223.29456952 315.44842527 217.87401916 315.46251781 212.45222855 315.48789597 C206.77532951 315.50816702 201.09853404 315.48936161 195.42163086 315.47680664 C185.88864419 315.46225685 176.35615353 315.48142017 166.82324219 315.51953125 C155.80574895 315.56306913 144.78944005 315.54896609 133.77197552 315.50492001 C124.30843063 315.46860224 114.84524204 315.4634998 105.38164997 315.48442936 C99.73127647 315.49689426 94.08145945 315.49858539 88.43112183 315.47213745 C83.11838288 315.44900626 77.80716894 315.46509248 72.49459457 315.5112915 C70.54636033 315.52185889 68.59799747 315.51884907 66.64981461 315.50119019 C56.62046698 315.04172479 56.62046698 315.04172479 47.5072937 318.32449341 C45.6164509 320.38184056 45.6164509 320.38184056 44.33396912 322.60475159 C42.17856332 326.09511558 38.9944097 327.52324976 35.125 328.5625 C28.72222302 329.28781458 23.43289359 329.60529978 18.125 325.5625 C15.62005229 322.15085343 15.72929618 318.43983132 15.5 314.3125 C15.42523438 313.04921875 15.35046875 311.7859375 15.2734375 310.484375 C15.22445312 309.52015625 15.17546875 308.5559375 15.125 307.5625 C14.465 307.5625 13.805 307.5625 13.125 307.5625 C13.11082031 308.4803125 13.09664063 309.398125 13.08203125 310.34375 C12.54304678 324.21167464 12.54304678 324.21167464 7.125 329.5625 C2.61201441 333.00377442 -1.99675007 334.2258696 -7.63671875 333.953125 C-13.28020758 332.96822293 -18.32433998 330.06910695 -21.875 325.5625 C-23.88301785 321.51777833 -24.09063269 318.23631808 -24 313.75 C-23.98195313 312.58855469 -23.96390625 311.42710937 -23.9453125 310.23046875 C-23.92210937 309.35003906 -23.89890625 308.46960938 -23.875 307.5625 C-24.535 307.8925 -25.195 308.2225 -25.875 308.5625 C-26.19499996 311.799071 -26.25503656 315.01487819 -26.3359375 318.265625 C-26.97553724 322.17737992 -28.08916938 323.7865133 -30.875 326.5625 C-35.42085874 329.6115516 -40.61910189 329.12537087 -45.875 328.5625 C-52.87213093 326.72374778 -57.91898967 321.42195654 -61.875 315.5625 C-65.05694624 308.91398388 -65.36289233 303.05688848 -65.3125 295.75 C-65.3424707 294.22536133 -65.3424707 294.22536133 -65.37304688 292.66992188 C-65.36546009 280.7662493 -61.25219102 271.73669909 -53.875 262.5625 C-53.37484375 261.93601562 -52.8746875 261.30953125 -52.359375 260.6640625 C-41.94851071 249.04385539 -25.05885105 243.35745167 -9.94140625 242.37109375 C9.08464431 241.70161865 27.36711841 247.65752174 41.38671875 260.66015625 C50.43350593 270.1549748 55.14484465 281.65815847 55.25 294.75 C55.20875 295.678125 55.1675 296.60625 55.125 297.5625 C57.105 297.5625 59.085 297.5625 61.125 297.5625 C59.96901522 283.00054244 57.0081687 271.50224288 48.125 259.5625 C47.3825 258.53125 46.64 257.5 45.875 256.4375 C34.53440516 244.58142358 16.68116636 236.94039977 0.3359375 236.28515625 C-8.0861667 236.14413806 -16.51462376 236.51040771 -24.875 237.5625 C-25.21372513 236.14711283 -25.54574624 234.73012037 -25.875 233.3125 C-26.060625 232.52359375 -26.24625 231.7346875 -26.4375 230.921875 C-26.875 228.5625 -26.875 228.5625 -26.875 224.5625 C-34.632803 225.50993284 -42.3256655 226.58178291 -50 228.0625 C-73.67957543 232.59603532 -73.67957543 232.59603532 -82.875 231.5625 C-83.535 230.9025 -84.195 230.2425 -84.875 229.5625 C-84.54528521 226.26535207 -84.2523161 224.9398161 -81.875 222.5625 C-78.97571992 221.80436343 -76.12182549 221.14930821 -73.1875 220.5625 C-72.33188477 220.38662354 -71.47626953 220.21074707 -70.59472656 220.02954102 C-64.26008066 218.75966274 -57.94538983 217.84028616 -51.53125 217.06640625 C-46.27213441 216.34159224 -41.11235974 215.25442686 -35.921875 214.1484375 C-32.875 213.5625 -32.875 213.5625 -29.875 213.5625 C-29.875 207.6225 -29.875 201.6825 -29.875 195.5625 C-31.36902344 195.45679688 -32.86304688 195.35109375 -34.40234375 195.2421875 C-41.15076799 194.62643565 -47.75894367 193.39854273 -54.40014648 192.08837891 C-56.43653553 191.68768977 -58.47487434 191.29838207 -60.51367188 190.91015625 C-80.35901133 187.07848867 -80.35901133 187.07848867 -83.875 183.5625 C-84.0625 180.5 -84.0625 180.5 -83.875 177.5625 C-82.875 176.5625 -82.875 176.5625 -79.546875 176.38671875 C-73.98779117 176.45973432 -68.59072322 177.42549892 -63.125 178.375 C-62.05822021 178.55587158 -60.99144043 178.73674316 -59.89233398 178.9230957 C-53.60290352 180.01325083 -47.45903146 181.29005661 -41.30078125 182.96875 C-37.51507481 183.89536414 -33.7546248 184.23919793 -29.875 184.5625 C-28.88725147 180.71748749 -27.94202372 176.91064036 -27.19140625 173.01171875 C-24.54221511 159.79321582 -19.31952193 147.7042568 -14.04833984 135.33886719 C-13.6611377 134.42266602 -13.27393555 133.50646484 -12.875 132.5625 C-12.49899658 131.73137695 -12.12299316 130.90025391 -11.7355957 130.04394531 C-10.76268497 127.23865035 -10.6315517 125.02692642 -10.64453125 122.0625 C-10.64646484 121.00933594 -10.64839844 119.95617187 -10.65039062 118.87109375 C-10.66263672 117.77925781 -10.67488281 116.68742187 -10.6875 115.5625 C-10.68814453 114.50160156 -10.68878906 113.44070312 -10.68945312 112.34765625 C-10.7178499 107.14158151 -10.89253599 102.00454348 -11.37109375 96.8203125 C-12.26451882 86.05401586 -12.118521 75.23341823 -12.125 64.4375 C-12.12600708 63.27963989 -12.12701416 62.12177979 -12.12805176 60.92883301 C-12.12024612 47.68265733 -12.07842303 34.49109693 -10.625 21.3125 C-10.51575195 20.29397949 -10.40650391 19.27545898 -10.29394531 18.22607422 C-9.40908819 11.55713134 -7.64880368 1.49650507 0 0 Z " fill="#332F59" transform="translate(474.875,114.4375)"/>
<path d="M0 0 C0.66 0 1.32 0 2 0 C2.05607422 1.30324219 2.05607422 1.30324219 2.11328125 2.6328125 C2.61094647 12.98807751 2.61094647 12.98807751 8.375 21.25 C13.81593478 24.87728985 18.5300869 25.85187189 25 25 C29.6456741 23.63410638 32.3783625 21.76509231 35.4375 18 C37.54460168 13.75807162 37.61941424 9.23790998 37.82421875 4.57421875 C38 2 38 2 39 0 C39.66 0 40.32 0 41 0 C42.3223589 2.6447178 42.29821499 4.92749757 42.5 7.875 C42.66673705 13.0702949 42.66673705 13.0702949 44 18 C49.28701792 20.93410746 55.13903728 20.71584277 61 20 C65.06230526 18.61708757 68.64353385 16.85321544 71.22480017 13.32666773 C74.84066024 8.4042996 74.84066024 8.4042996 77.8822459 7.34359944 C80.08658894 7.09587549 82.20110009 7.06145542 84.41905212 7.10438538 C85.25228439 7.09275988 86.08551666 7.08113438 86.9439984 7.06915659 C89.72906991 7.03895316 92.51149895 7.05864555 95.29663086 7.07836914 C97.29600305 7.06724374 99.29536064 7.05315655 101.29469299 7.03633118 C106.7205386 7.00015084 112.14547461 7.00840454 117.57137752 7.0267899 C122.10183004 7.03795941 126.63211707 7.02705448 131.16256148 7.01601785 C141.85063693 6.99015308 152.53827278 6.99974269 163.22631836 7.0324707 C174.25115686 7.06571647 185.27491957 7.04459798 196.29967588 6.99576861 C205.76743004 6.95545524 215.23485352 6.94626375 224.70267969 6.96259969 C230.35644085 6.97220423 236.00961262 6.9706188 241.66331291 6.94020271 C246.98011029 6.91317351 252.29542516 6.92515825 257.61211205 6.96708488 C259.56196946 6.97605649 261.51194447 6.97143488 263.46172714 6.95214844 C278.24259438 6.81817866 278.24259438 6.81817866 282.61868477 9.76101494 C284.48365784 11.90745544 284.48365784 11.90745544 285.79158878 14.04169369 C287.950114 17.53971944 291.12973133 18.94566285 295 20 C300.27833189 20.73020402 305.99257497 21.25389882 310.6875 18.3125 C314.23465132 14.7446051 313.78188831 9.5996486 313.89453125 4.86328125 C314 2 314 2 315 0 C315.99 0.33 316.98 0.66 318 1 C318.02578125 1.85722656 318.0515625 2.71445312 318.078125 3.59765625 C318.41945775 10.47861409 318.69521399 15.4994401 323 21 C328.10848156 24.83136117 332.69536205 25.4203092 339 25 C344.52400144 23.68869498 347.85246106 21.91016074 351 17 C352.40233067 14.19533866 352.30659936 11.62203894 352.5 8.5 C352.88888889 2.22222222 352.88888889 2.22222222 354 0 C354.66 0 355.32 0 356 0 C357.32591195 2.65182391 357.14781324 4.85273357 357.25 7.8125 C357.57305394 13.03603393 357.57305394 13.03603393 360.4375 17.1875 C365.47959046 20.75385667 369.94317518 20.5662885 376 20 C381.15192269 18.60060231 383.98553084 16.16157337 387.06640625 11.88671875 C389.13913863 9.4721037 390.353269 8.18580046 393.43212891 7.30126953 C396.22456168 7.10258415 398.89307027 7.14708274 401.6875 7.3125 C402.66485107 7.34448486 403.64220215 7.37646973 404.64916992 7.40942383 C415.59957597 7.89281111 424.76116246 9.95554314 434 16 C434.86625 16.556875 435.7325 17.11375 436.625 17.6875 C444.82648969 25.67316102 449.01514016 34.52366186 449.3175478 45.98745346 C449.35854116 49.93249297 449.33114499 53.87536267 449.29296875 57.8203125 C449.28736355 59.53237534 449.28309782 61.24444305 449.28010559 62.95651245 C449.26872949 67.43145365 449.23932586 71.90609609 449.20599365 76.38092041 C449.17513553 80.95963501 449.16156683 85.53839856 449.14648438 90.1171875 C449.11444819 99.07825523 449.06334092 108.03910263 449 117 C447.72922607 117.05406006 446.45845215 117.10812012 445.14916992 117.16381836 C443.44708883 117.24302586 441.74502252 117.32255133 440.04296875 117.40234375 C438.79283997 117.45424866 438.79283997 117.45424866 437.51745605 117.50720215 C415.45681201 118.57352913 396.75639834 127.31231961 381.69921875 143.46875 C376.39468571 149.81358953 372.1071948 156.84043358 368 164 C367.58443848 164.71800781 367.16887695 165.43601562 366.74072266 166.17578125 C365.43076643 168.46005694 364.14898774 170.75799773 362.875 173.0625 C362.46000244 173.78896729 362.04500488 174.51543457 361.61743164 175.26391602 C359.44886373 179.03079334 359.44886373 179.03079334 359.5 183.20703125 C362.02102195 186.2204403 364.63935736 189.10479204 367.3203125 191.9765625 C369 194 369 194 369 196 C369.66 196 370.32 196 371 196 C371.27312012 195.11787842 371.54624023 194.23575684 371.82763672 193.3269043 C372.9130674 190.24669523 374.16464498 187.61189297 375.7578125 184.76953125 C376.56641724 183.32549927 376.56641724 183.32549927 377.39135742 181.85229492 C377.96345947 180.8491626 378.53556152 179.84603027 379.125 178.8125 C379.71321533 177.78036377 380.30143066 176.74822754 380.9074707 175.68481445 C390.74315544 158.61060655 402.39646806 143.06744263 421.89453125 136.5546875 C431.02771398 134.14854289 439.43891553 134 449 134 C449 166.67 449 199.34 449 233 C414.74328064 233 397.52236076 232.52564539 374.9375 210.1875 C370.39002581 205.60830481 366.12027518 200.9461376 362.18359375 195.82421875 C342.7181909 170.64803581 323.8979428 149.838516 291 145 C288.69204589 144.85825987 286.38150654 144.75517941 284.0703125 144.68359375 C282.78125 144.64169922 281.4921875 144.59980469 280.1640625 144.55664062 C278.81771091 144.51683972 277.47135671 144.47712727 276.125 144.4375 C274.75519667 144.39424817 273.38540479 144.35063188 272.015625 144.30664062 C268.67717843 144.20084478 265.338661 144.09875628 262 144 C261.99635437 143.24911102 261.99270874 142.49822205 261.98895264 141.72457886 C261.95101719 134.6329954 261.89410206 127.54187399 261.81609726 120.45063591 C261.77666111 116.80528898 261.74445412 113.16018219 261.72900391 109.51464844 C261.71381121 105.99356924 261.67932118 102.47315041 261.63169098 98.95236588 C261.60972868 96.96174418 261.60752851 94.97093606 261.60565186 92.98019409 C261.4777806 85.06347464 260.92952784 81.14057665 255.47265625 75.390625 C250.36045154 71.25554529 246.46824837 69.75587566 239.91656494 69.71911621 C238.08306488 69.70198578 238.08306488 69.70198578 236.21252441 69.68450928 C234.86596721 69.68201889 233.51940954 69.67976863 232.17285156 69.67773438 C230.74830617 69.66847099 229.32376571 69.65842072 227.89923096 69.64764404 C224.03541141 69.62145878 220.17166128 69.60851844 216.30776691 69.59962273 C213.89099769 69.59375091 211.47424723 69.58553935 209.05748749 69.57661438 C201.48787663 69.54928057 193.9183089 69.5299396 186.34865212 69.5222106 C177.62554129 69.51325363 168.90305795 69.47817225 160.18013787 69.42020941 C153.42749774 69.3769043 146.67503368 69.35679826 139.92225623 69.35412836 C135.89370803 69.35203725 131.86575031 69.34033121 127.83734894 69.30448914 C124.04495798 69.27140202 120.25359732 69.26727484 116.46111298 69.28476715 C115.07483652 69.28630136 113.68850324 69.27770835 112.30236816 69.25785065 C104.72637766 69.15574401 99.1258453 69.56711876 92.85506821 74.02896881 C81.28410335 86.32325133 86.54062223 98.61884404 86 117 C28.25 117 -29.5 117 -89 117 C-89 30.54054054 -89 30.54054054 -79 20 C-67.33654145 9.65978634 -55.06440506 6.67821196 -39.7578125 7.2734375 C-35.29382748 7.71074683 -33.06406315 8.77409848 -30.125 12.3125 C-29.08163435 13.87386601 -28.03974635 15.43622149 -27 17 C-21.37689105 20.50118105 -15.47330507 20.90528928 -9 20 C-5.85021625 18.69219505 -3.56333555 17.12667109 -2 14 C-1.68416554 10.62671248 -1.48866238 7.25265635 -1.28125 3.87109375 C-1 1 -1 1 0 0 Z " fill="#FCFCFC" transform="translate(449,422)"/>
<path d="M0 0 C57.42 0 114.84 0 174 0 C174.33 26.4 174.66 52.8 175 80 C179.82744927 90.50943264 179.82744927 90.50943264 188.81553936 96.1082859 C192.04299182 97.01203859 194.67127318 97.25646939 198.01387024 97.26742554 C199.19550751 97.27595551 200.37714478 97.28448547 201.59458923 97.29327393 C202.87733231 97.29236755 204.16007538 97.29146118 205.48168945 97.29052734 C206.85712039 97.29651698 208.23254798 97.30332353 209.60797119 97.31088257 C213.33332608 97.3285062 217.05858901 97.33323642 220.78398156 97.33451414 C223.11482393 97.33593844 225.44564312 97.34021333 227.77647972 97.34550858 C235.9176519 97.36399732 244.0587587 97.3721807 252.19995117 97.37060547 C259.77308879 97.36940461 267.34594117 97.39049892 274.91900665 97.4220928 C281.43387761 97.44829757 287.94865565 97.458971 294.46357888 97.45769465 C298.34888669 97.45718622 302.23394091 97.46280312 306.11919594 97.48405075 C309.77601837 97.50350416 313.43234714 97.50350979 317.08918762 97.48901749 C319.05909128 97.48595044 321.02899536 97.5025563 322.99882507 97.51989746 C331.68945977 97.45863729 338.09276045 96.22771963 344.875 90.625 C350.45814433 83.72817465 350.46580567 77.74297082 350.51171875 69.1640625 C350.52966995 67.92957367 350.54762115 66.69508484 350.56611633 65.42318726 C350.62018431 61.49049263 350.65410502 57.55791917 350.6875 53.625 C350.71904465 50.95438118 350.75516579 48.28384861 350.79101562 45.61328125 C350.87590909 39.07562947 350.94427411 32.53796195 351 26 C355.14577275 25.94136106 359.29143705 25.90619016 363.4375 25.875 C364.60216797 25.85824219 365.76683594 25.84148438 366.96679688 25.82421875 C373.6657945 25.78647792 379.53117153 26.24506652 386 28 C387.54300781 28.40798828 387.54300781 28.40798828 389.1171875 28.82421875 C406.10347161 34.14145499 418.51963173 46.0106836 429 60 C429.91845703 61.10214844 429.91845703 61.10214844 430.85546875 62.2265625 C431.41878906 62.91492188 431.98210937 63.60328125 432.5625 64.3125 C433.30693359 65.20388672 433.30693359 65.20388672 434.06640625 66.11328125 C435.42076116 68.85032486 434.83458375 70.03720313 434 73 C432.67375212 76.06378904 431.17046903 79.03128997 429.66015625 82.0078125 C429.21917099 82.88790985 428.77818573 83.7680072 428.32383728 84.67477417 C427.38592946 86.5438686 426.44514499 88.41152188 425.50170898 90.27783203 C424.09345419 93.06376373 422.69333817 95.85365043 421.29492188 98.64453125 C416.04231558 109.10394923 410.66961823 119.49384443 405.19458008 129.83837891 C403.38774534 133.25504943 401.61414347 136.68703946 399.86328125 140.1328125 C399.43080078 140.9784375 398.99832031 141.8240625 398.55273438 142.6953125 C397.70766467 144.35085062 396.86938685 146.00986914 396.03710938 147.671875 C389.37419363 160.61696844 379.5627555 171.52772907 367 179 C366.34 179 365.68 179 365 179 C365 184.94 365 190.88 365 197 C410.32133888 180.00449792 427.90448027 124.76159019 447 84 C447.66 84 448.32 84 449 84 C450.33984375 85.43359375 450.33984375 85.43359375 451.9375 87.4375 C464.54464033 102.11562848 480.59456481 109.3986412 499 114 C518.305 114.495 518.305 114.495 538 115 C538 149.32 538 183.64 538 219 C478.93 219 419.86 219 359 219 C358.505 191.28 358.505 191.28 358 163 C352.24344877 154.67951288 352.24344877 154.67951288 344 150 C342.2248064 149.90334645 340.44619514 149.86505052 338.66838074 149.85955811 C337.00919868 149.85099289 337.00919868 149.85099289 335.3164978 149.84225464 C333.49536972 149.84057785 333.49536972 149.84057785 331.63745117 149.83886719 C330.35917953 149.83390228 329.0809079 149.82893738 327.76390076 149.82382202 C324.25552348 149.81070556 320.74716534 149.80425448 317.23876739 149.79981136 C315.04616714 149.79687928 312.85357212 149.7927742 310.6609745 149.78830719 C303.79882748 149.77463392 296.93669239 149.76496657 290.07453269 149.7611053 C282.15696665 149.75662553 274.23957333 149.7390808 266.32205981 149.7101047 C260.19965963 149.68847719 254.07730801 149.67840044 247.95487005 149.67706418 C244.29936127 149.67601687 240.64401489 149.67012495 236.98854637 149.65224457 C232.90916872 149.63267882 228.83015182 149.63705709 224.75073242 149.64355469 C223.54271973 149.6343399 222.33470703 149.62512512 221.09008789 149.6156311 C214.34872501 149.64931523 209.35100856 149.9139216 204.171875 154.68359375 C203.70265625 155.26238281 203.2334375 155.84117187 202.75 156.4375 C202.27046875 157.01371094 201.7909375 157.58992187 201.296875 158.18359375 C198.5992263 161.96192702 197.74651871 164.7483323 197.68115234 169.41113281 C197.66128265 170.49195129 197.64141296 171.57276978 197.62094116 172.68634033 C197.60938995 173.84687927 197.59783875 175.00741821 197.5859375 176.203125 C197.56657135 177.39605164 197.5472052 178.58897827 197.5272522 179.8180542 C197.46746733 183.62863004 197.42107473 187.4392361 197.375 191.25 C197.33681928 193.83334652 197.2977675 196.41668032 197.2578125 199 C197.16176656 205.33322046 197.07671564 211.66651749 197 218 C193.94784886 218.02876904 190.89597149 218.04980596 187.84375 218.06640625 C186.98362305 218.07530884 186.12349609 218.08421143 185.23730469 218.09338379 C172.82975868 218.14399038 163.89872219 213.98105179 154.50390625 205.8359375 C145.99729053 197.26126885 140.69285418 186.53250175 135 176 C133.97445719 174.11561384 132.94841721 172.23149816 131.921875 170.34765625 C130.40258801 167.55683694 128.88361473 164.7658534 127.36645508 161.97387695 C111.97084546 133.70184741 96.79568901 110.82623522 64.47802734 100.89355469 C57.28573955 98.87462134 50.60341276 98.39786424 43.1640625 98.390625 C42.05764404 98.37499512 40.95122559 98.35936523 39.8112793 98.34326172 C35.74939862 98.29137587 31.68714963 98.27252026 27.625 98.25 C13.950625 98.12625 13.950625 98.12625 0 98 C0 65.66 0 33.32 0 0 Z " fill="#FDFCFC" transform="translate(360,557)"/>
<path d="M0 0 C13.303125 -0.061875 13.303125 -0.061875 26.875 -0.125 C29.65534668 -0.14320801 32.43569336 -0.16141602 35.30029297 -0.18017578 C37.53092252 -0.18602299 39.76155423 -0.191118 41.9921875 -0.1953125 C43.12857666 -0.20554443 44.26496582 -0.21577637 45.43579102 -0.22631836 C61.65685465 -0.22983322 75.04498274 4.3046133 86.83984375 15.7734375 C87.55269531 16.50820313 88.26554687 17.24296875 89 18 C89.89912109 18.88558594 89.89912109 18.88558594 90.81640625 19.7890625 C101.12588779 30.64870198 107.76919129 45.13473214 114.74731445 58.20141602 C133.6496744 94.28499476 133.6496744 94.28499476 167 116 C174.40476712 118.24286933 181.7521748 119.15229992 189.44140625 119.5703125 C190.53829773 119.63424194 190.53829773 119.63424194 191.65734863 119.69946289 C193.43805211 119.80279754 195.2190032 119.90185062 197 120 C196.99476318 120.65431 196.98952637 121.30862 196.98413086 121.98275757 C196.93722832 128.82971236 196.94660418 135.67499336 196.98779297 142.52197266 C196.99587425 145.0727486 196.98989044 147.62361126 196.96923828 150.17431641 C196.9419364 153.85432273 196.96620823 157.53104487 197 161.2109375 C196.97087524 162.90529434 196.97087524 162.90529434 196.94116211 164.63388062 C197.07645993 172.16206746 198.86009419 176.28359041 203.796875 181.96914673 C207.88988025 185.74210246 211.04328092 187.37372089 216.6413269 187.38768005 C217.76558075 187.39758469 218.88983459 187.40748932 220.04815674 187.41769409 C221.27218201 187.41319244 222.49620728 187.4086908 223.75732422 187.40405273 C225.70202103 187.41434761 225.70202103 187.41434761 227.68600464 187.42485046 C231.23572401 187.44277511 234.78519609 187.44161464 238.33494711 187.43590808 C241.30203816 187.43281455 244.26908182 187.43891064 247.23616612 187.44494683 C254.23870172 187.45898876 261.24111533 187.45743416 268.24365234 187.44604492 C275.45839861 187.43456954 282.67277289 187.44863009 289.88747013 187.4754414 C296.08977872 187.49762417 302.29197078 187.50422983 308.49431622 187.49836498 C312.19512216 187.49499965 315.8956898 187.49738172 319.59646225 187.51461601 C323.72584188 187.53300719 327.85450181 187.5188717 331.98388672 187.50170898 C333.20386353 187.51137695 334.42384033 187.52104492 335.68078613 187.53100586 C342.34023691 187.47304469 346.61096498 187.03620185 352 183 C353.77594534 181.09578804 353.77594534 181.09578804 354.875 179 C355.45894531 178.01 355.45894531 178.01 356.0546875 177 C364.184735 159.79923834 358.62702565 139.02169194 359 120 C417.74 120 476.48 120 537 120 C537 178.4049904 537 178.4049904 524.96484375 191.15625 C511.45031118 203.93189279 496.08006113 205.45147189 478.37722778 205.38768005 C476.4878374 205.3918571 474.59844952 205.39733665 472.70906627 205.40399987 C467.53704597 205.41842443 462.36518542 205.41421907 457.19315648 205.40683305 C451.60748512 205.4020963 446.02184806 205.41461573 440.43618774 205.42485046 C429.50115009 205.44203379 418.5661699 205.44287943 407.63112225 205.43763756 C398.74180623 205.43359379 389.85250719 205.43504189 380.96319199 205.44038582 C379.06438449 205.44150845 379.06438449 205.44150845 377.12721726 205.44265376 C374.55548263 205.44418526 371.98374801 205.44572361 369.4120134 205.44726873 C352.14892609 205.45709512 334.88584692 205.46126374 317.62275887 205.45364285 C316.94816288 205.45334567 316.2735669 205.4530485 315.57852861 205.45274232 C310.10084789 205.45029355 304.62316724 205.44768188 299.1454866 205.44505819 C277.7820198 205.4349569 256.41863162 205.44331093 235.05517578 205.46655273 C211.03439582 205.49264343 187.01366951 205.50541893 162.99287021 205.49836498 C150.28122382 205.49487316 137.56964197 205.49710246 124.85800552 205.51461601 C114.03700242 205.52934004 103.21610931 205.52997069 92.39510836 205.5125451 C86.87652636 205.50403452 81.35814083 205.5018872 75.83956909 205.51719666 C70.78261015 205.53105161 65.72601587 205.52626995 60.66907798 205.50695742 C58.84482791 205.50319962 57.02054857 205.50611297 55.1963246 205.51656907 C40.84896311 205.59292376 28.71214287 204.06438756 17 195 C15.96875 194.278125 14.9375 193.55625 13.875 192.8125 C6.72261608 186.61376727 0.83294787 175.60790577 -0.3508606 166.21656799 C-0.45876617 163.23793713 -0.45092786 160.28461933 -0.390625 157.3046875 C-0.38496521 156.23123077 -0.37930542 155.15777405 -0.37347412 154.05178833 C-0.35127411 150.65905125 -0.30110797 147.2674121 -0.25 143.875 C-0.22991387 141.5599112 -0.21166682 139.24480567 -0.1953125 136.9296875 C-0.15146331 131.28609048 -0.08471745 125.64312371 0 120 C0.69331924 119.99413376 1.38663849 119.98826752 2.10096741 119.98222351 C8.7040519 119.92379989 15.30682938 119.85145053 21.90960026 119.76428509 C25.30241996 119.71996429 28.69513006 119.68062998 32.08813477 119.65356445 C57.45459089 119.63012608 57.45459089 119.63012608 81.6875 112.8125 C82.39680664 112.50989258 83.10611328 112.20728516 83.83691406 111.89550781 C96.91053155 106.11851809 111.73499571 95.95053751 120 84 C120.00620141 79.95047803 118.08172146 77.16316284 115.9375 73.8125 C113 69.20235294 113 69.20235294 113 67 C112.34 67 111.68 67 111 67 C110.76796875 67.54398438 110.5359375 68.08796875 110.296875 68.6484375 C101.63132999 84.36126308 82.94553605 95.42383325 66.41162109 100.84936523 C53.46815996 104.30848132 39.90050251 103.31963916 26.625 103.1875 C17.83875 103.125625 9.0525 103.06375 0 103 C0 69.01 0 35.02 0 0 Z " fill="#FCFCFC" transform="translate(360,673)"/>
<path d="M0 0 C9.24 0 18.48 0 28 0 C39.21181608 36.77475673 39.21181608 36.77475673 42.71875 48.94921875 C45.56353786 58.81866719 48.47712001 68.62714444 51.80078125 78.34643555 C54.00842489 84.86735102 55.8882727 91.46579399 57.74365234 98.09423828 C59.43951292 104.1248297 61.2680226 110.09956274 63.1875 116.0625 C65.41196036 122.98018597 67.38670796 129.91000604 69 137 C72.01698268 130.85429455 74.06794383 124.63364153 75.93237305 118.06665039 C77.62521795 112.15219 79.52476952 106.32573362 81.5 100.5 C83.68162861 94.05590388 85.75276443 87.603323 87.625 81.0625 C89.4180706 74.79839623 91.50894672 68.70146923 93.75390625 62.58203125 C95.1217712 58.64995551 96.2950735 54.689405 97.4375 50.6875 C99.12106067 44.79804521 100.98923451 39.01391219 103.0625 33.25 C106.63814725 23.30820514 109.7402585 13.27788334 112.38671875 3.046875 C113 1 113 1 114 0 C115.78071246 -0.08726223 117.5648314 -0.10699041 119.34765625 -0.09765625 C120.42724609 -0.09443359 121.50683594 -0.09121094 122.61914062 -0.08789062 C124.32360352 -0.07532227 124.32360352 -0.07532227 126.0625 -0.0625 C127.77276367 -0.05573242 127.77276367 -0.05573242 129.51757812 -0.04882812 C132.34510351 -0.03699747 135.1725264 -0.0205141 138 0 C138.48958333 1.52994792 138.97916667 3.05989583 139.46875 4.58984375 C139.78875977 5.58983398 140.10876953 6.58982422 140.43847656 7.62011719 C141.15406558 9.85641516 141.86955832 12.09274395 142.58496094 14.32910156 C144.44504704 20.1432921 146.30656887 25.95701312 148.171875 31.76953125 C154.32203373 50.94246155 154.32203373 50.94246155 157.078125 59.984375 C158.18294724 63.59845452 159.30889795 67.20579614 160.4375 70.8125 C160.64930908 71.48990234 160.86111816 72.16730469 161.0793457 72.86523438 C162.11183932 76.16607923 163.14653688 79.46620973 164.18359375 82.765625 C166.64267306 90.60242858 169.05400661 98.4523608 171.4375 106.3125 C174.54719555 116.566736 177.74763729 126.79020203 181 137 C181.43699219 135.50726562 181.43699219 135.50726562 181.8828125 133.984375 C184.2052801 126.06394304 186.55291724 118.15196 188.9375 110.25 C191.02481553 103.33048869 193.03549858 96.39281022 195 89.4375 C197.13289385 81.89156955 199.42464145 74.41180134 201.82250977 66.94628906 C203.48800437 61.72415059 205.00569974 56.47811932 206.4375 51.1875 C208.5506003 43.37942119 210.98249325 35.69400075 213.47314453 27.99902344 C215.60096018 21.37993411 217.48432448 14.73895987 219.17578125 7.99609375 C220 5 220 5 222 0 C231.24 0 240.48 0 250 0 C248.11440444 7.54238225 246.20689163 14.7582559 243.6875 22.0625 C243.06789501 23.89285196 242.44942889 25.7235898 241.83203125 27.5546875 C241.52475098 28.46444336 241.2174707 29.37419922 240.90087891 30.31152344 C237.21508508 41.31097101 233.85674761 52.37528746 230.82592773 63.57177734 C229.22530016 69.39633688 227.27276859 75.04608584 225.18359375 80.71484375 C223.65125655 84.96796448 222.33332559 89.270608 221.02734375 93.59765625 C219.89627247 97.34352349 218.73268621 101.07872664 217.5625 104.8125 C217.1328118 106.1861977 216.7031243 107.55989561 216.2734375 108.93359375 C215.46708412 111.50941095 214.65960402 114.08486744 213.8515625 116.66015625 C205.98506913 141.68428656 205.98506913 141.68428656 198.546875 166.83764648 C197.53540452 170.34526854 196.36320743 173.59198142 195 177 C186.09 177 177.18 177 168 177 C165.81282084 170.02981214 163.62570009 163.059606 161.4387207 156.08935547 C160.69689176 153.72508729 159.95503059 151.36082922 159.21313477 148.99658203 C152.1643675 126.53368648 152.1643675 126.53368648 149.3515625 117.5234375 C146.85427235 109.52748342 144.34415169 101.53561612 141.82543945 93.54638672 C141.31800114 91.93589931 140.81116231 90.32522289 140.30493164 88.71435547 C136.87908518 77.81403549 133.35427074 66.95208595 129.71237183 56.12200928 C128.46851317 52.41680994 127.23457932 48.7082996 126 45 C123.07548373 47.92451627 122.4183437 51.56583224 121.25 55.4375 C120.71365422 57.17451393 120.1771927 58.91149211 119.640625 60.6484375 C119.36798828 61.53885742 119.09535156 62.42927734 118.81445312 63.34667969 C117.56263826 67.42483434 116.28347439 71.49421615 115 75.5625 C114.63140869 76.73341187 114.63140869 76.73341187 114.25537109 77.92797852 C112.27556393 84.19133318 110.20280029 90.42132284 108.11157227 96.64819336 C106.34250261 101.93090482 104.66210328 107.23497951 103.0456543 112.56665039 C99.22952701 125.09669896 95.22771188 137.56592377 91.1784668 150.0222168 C90.30132877 152.72188294 89.42699416 155.42244746 88.55273438 158.12304688 C87.98975221 159.85682568 87.42660731 161.59055165 86.86328125 163.32421875 C86.60492996 164.12317062 86.34657867 164.9221225 86.08039856 165.74528503 C85.8364183 166.49409439 85.59243805 167.24290375 85.34106445 168.0144043 C85.1296431 168.66563766 84.91822174 169.31687103 84.70039368 169.98783875 C83.8770056 172.35335067 82.93022909 174.67442728 82 177 C73.09 177 64.18 177 55 177 C54.278125 174.69 53.55625 172.38 52.8125 170 C52.56798096 169.21898926 52.32346191 168.43797852 52.0715332 167.63330078 C50.94903585 164.04725063 49.83207352 160.45971504 48.73046875 156.8671875 C46.7850441 150.54397955 44.77309685 144.2779992 42.5 138.0625 C40.71682703 133.14911317 39.1315139 128.20940655 37.6875 123.1875 C34.80006265 113.16965255 31.58913566 103.26275282 28.39306641 93.33984375 C26.693541 88.05264043 25.00944324 82.76052507 23.32421875 77.46875 C22.65869143 75.37972005 21.99316408 73.2906901 21.32763672 71.20166016 C20.3285182 68.0653052 19.32964179 64.92887434 18.331604 61.79217529 C13.86745622 47.75131183 13.86745622 47.75131183 9.24609375 33.76171875 C7.26490365 27.85856425 5.44245754 21.92934563 3.75 15.9375 C3.36714844 14.61202148 3.36714844 14.61202148 2.9765625 13.25976562 C1.70747675 8.80126702 0.76804953 4.6082972 0 0 Z " fill="#332F59" transform="translate(185,934)"/>
<path d="M0 0 C9.81990631 7.4352633 20.66118696 16.73630858 23.86328125 29.16796875 C24.98529421 38.18641257 24.23775851 45.67314978 18.86328125 53.16796875 C16.36328125 55.60546875 16.36328125 55.60546875 13.86328125 57.16796875 C13.16203125 57.74546875 12.46078125 58.32296875 11.73828125 58.91796875 C6.53912989 61.17846934 0.84336257 61.28178652 -4.48828125 59.2890625 C-9.50456125 56.44274632 -11.62730607 53.276416 -14.13671875 48.16796875 C-18.44450816 40.98831973 -25.10806445 34.70067747 -33.44140625 32.58203125 C-44.95196958 30.81374181 -54.78543699 32.12848774 -64.484375 38.77734375 C-71.68796305 44.6479314 -77.25833419 53.10730918 -78.42407227 62.4777832 C-78.5387244 64.94393807 -78.54629596 67.38704005 -78.51171875 69.85546875 C-78.52332031 70.66435547 -78.53492188 71.47324219 -78.546875 72.30664062 C-78.48961685 84.5121692 -74.50467738 95.55466112 -69.94921875 106.73046875 C-69.46235596 107.94992187 -68.97549316 109.169375 -68.47387695 110.42578125 C-66.29884031 115.8732186 -64.08454613 121.30425347 -61.84765625 126.7265625 C-49.4996041 156.78619736 -42.36056908 187.90883255 -50.13671875 220.16796875 C-50.38035156 221.37195313 -50.62398437 222.5759375 -50.875 223.81640625 C-54.5401966 240.11002903 -63.30606349 254.6083832 -74.13671875 267.16796875 C-74.81526665 267.97630913 -74.81526665 267.97630913 -75.50752258 268.80097961 C-77.58181376 270.54142902 -78.65125696 270.53270264 -81.33276367 270.50854492 C-82.17340866 270.50831833 -83.01405365 270.50809174 -83.88017273 270.50785828 C-84.7833876 270.49237442 -85.68660248 270.47689056 -86.6171875 270.4609375 C-87.54517654 270.45669266 -88.47316559 270.45244781 -89.42927551 270.44807434 C-92.39455118 270.43127537 -95.35914835 270.39362091 -98.32421875 270.35546875 C-100.33397456 270.34042349 -102.34374102 270.32673481 -104.35351562 270.31445312 C-109.28151161 270.28136783 -114.20900013 270.22957708 -119.13671875 270.16796875 C-119.31605868 266.81059579 -119.42387334 263.45446616 -119.51953125 260.09375 C-119.57085205 259.14922974 -119.62217285 258.20470947 -119.67504883 257.23156738 C-119.78090978 252.26798496 -119.64319487 249.06901532 -116.27539062 245.25146484 C-113.60762158 242.69373177 -110.66928672 240.50178359 -107.67480469 238.34228516 C-98.27834835 231.16816532 -93.71650583 217.15837285 -91.13671875 206.16796875 C-90.63765167 201.54532688 -90.61042385 197.00079311 -90.69921875 192.35546875 C-90.71243164 191.132229 -90.72564453 189.90898926 -90.73925781 188.64868164 C-91.00338764 175.36383152 -93.04237023 163.50974893 -98.13671875 151.16796875 C-98.80383294 149.50148116 -99.47050256 147.83481554 -100.13671875 146.16796875 C-100.46671875 145.35585938 -100.79671875 144.54375 -101.13671875 143.70703125 C-102.52815154 140.17409643 -103.77469762 136.5934765 -105.01171875 133.00390625 C-105.9212967 130.71101184 -106.91030557 128.62380159 -108.04296875 126.44140625 C-120.035851 102.81653867 -126.0889186 71.71322685 -118.5234375 45.9375 C-110.75070499 23.80173158 -96.20875419 6.55363715 -75.13671875 -3.83203125 C-51.34690838 -14.37249965 -22.13548335 -14.99137564 0 0 Z " fill="#34305A" transform="translate(1035.13671875,268.83203125)"/>
<path d="M0 0 C0.83273437 0.226875 1.66546875 0.45375 2.5234375 0.6875 C15.11884471 4.32516273 27.29499679 12.20687139 36 22 C36.33 22.99 36.66 23.98 37 25 C33.75063515 30.01300038 29.01083204 34.0585698 24.3828125 37.7734375 C22.85896891 38.97175539 22.85896891 38.97175539 22 41 C18.68597405 39.52375208 16.24329651 37.609235 13.5 35.25 C8.04360496 30.83368026 2.41549153 27.80159708 -4 25 C-5.28003906 24.37738281 -5.28003906 24.37738281 -6.5859375 23.7421875 C-20.09273906 18.07804491 -38.28650433 19.10837728 -51.734375 24.4453125 C-57.05875234 26.98012372 -62.10386711 29.70866939 -67 33 C-67.65355469 33.43699219 -68.30710937 33.87398437 -68.98046875 34.32421875 C-81.51951471 43.87914393 -89.65349796 61.81291734 -92 77 C-94.28760605 97.98022947 -89.69451532 118.66891911 -77.05859375 135.6015625 C-67.64609897 146.97261679 -53.57594143 154.76085762 -39 157 C-35.68093618 157.25495369 -32.39008299 157.28737422 -29.0625 157.25 C-28.18005615 157.24250732 -27.2976123 157.23501465 -26.38842773 157.22729492 C-20.38694631 157.12789035 -14.75359548 156.83156123 -9 155 C-7.9790625 154.68160156 -6.958125 154.36320312 -5.90625 154.03515625 C4.46273995 150.43750436 13.49086614 144.97811567 20 136 C22.80881509 137.28721504 24.92788567 138.65863741 27.1640625 140.78515625 C27.72867188 141.31560547 28.29328125 141.84605469 28.875 142.39257812 C29.74125 143.21918945 29.74125 143.21918945 30.625 144.0625 C34.49326309 147.96570729 34.49326309 147.96570729 39 151 C39 154 39 154 36.87109375 156.3828125 C14.2649674 176.98975761 -10.84369109 183.4957368 -41.06445312 182.21582031 C-47.36387554 181.75268912 -53.08280271 180.21803696 -59 178 C-60.01449219 177.649375 -61.02898438 177.29875 -62.07421875 176.9375 C-74.60461174 172.22017558 -85.56618719 164.41681495 -95 155 C-95.62261719 154.38898438 -96.24523437 153.77796875 -96.88671875 153.1484375 C-102.49111788 147.22918449 -106.16492146 140.11997704 -110 133 C-110.48726562 132.154375 -110.97453125 131.30875 -111.4765625 130.4375 C-118.93935229 116.88544002 -120.17731404 101.224852 -120.125 86.0625 C-120.12886719 84.91458984 -120.13273438 83.76667969 -120.13671875 82.58398438 C-120.13542969 81.49537109 -120.13414062 80.40675781 -120.1328125 79.28515625 C-120.13168457 78.29394775 -120.13055664 77.30273926 -120.12939453 76.28149414 C-120 74 -120 74 -119 73 C-118.77360497 71.33569058 -118.56993568 69.66828674 -118.375 68 C-115.27882831 48.87658664 -104.30267919 33.51413796 -91 20 C-90.29359375 19.26910156 -89.5871875 18.53820312 -88.859375 17.78515625 C-79.01187863 8.29472558 -66.19377655 2.14743103 -53 -1 C-51.88882813 -1.29648437 -50.77765625 -1.59296875 -49.6328125 -1.8984375 C-32.97393778 -5.87177961 -16.25451005 -5.17708049 0 0 Z " fill="#7966AE" transform="translate(850,934)"/>
<path d="M0 0 C11.56629253 8.62630645 16.73845666 19.61664077 21 33 C21.33 33.99 21.66 34.98 22 36 C22 42.93 22 49.86 22 57 C-8.69 57 -39.38 57 -71 57 C-65.85511693 73.46362582 -62.96780186 80.76340679 -48.8125 88.8125 C-38.43051632 93.19600422 -24.75856684 92.13891118 -14.453125 88.140625 C-11.36832556 86.7062915 -8.68259823 85.0937352 -6 83 C-5.0925 82.319375 -4.185 81.63875 -3.25 80.9375 C-0.81914427 79.01964237 -0.81914427 79.01964237 1 76 C5.14949326 76.55064366 7.5051044 78.84262261 10.625 81.5 C14.10402974 84.56394994 14.10402974 84.56394994 18 87 C13.62066565 97.35115392 3.82079732 102.92039152 -6 107.3125 C-20.15656027 113.0024358 -37.19406688 114.50615356 -52 110 C-52.87527344 109.74347656 -53.75054688 109.48695312 -54.65234375 109.22265625 C-69.98934594 104.21070462 -81.55309074 94.2596535 -89 80 C-96.3993307 62.35250069 -97.88003466 42.91074211 -90.74609375 24.8203125 C-82.9344383 8.09017303 -70.34953091 -2.22970305 -53.42578125 -9.03515625 C-35.36150858 -14.98281111 -15.05289461 -10.95834904 0 0 Z " fill="#34305A" transform="translate(684,1001)"/>
<path d="M0 0 C9.38579203 7.27114218 14.02130731 17.50965956 16 29 C16.24195755 31.88637821 16.25504085 34.74571951 16.22705078 37.64086914 C16.22734283 38.45172974 16.22763489 39.26259033 16.22793579 40.09802246 C16.22655679 42.74384755 16.21106392 45.38938115 16.1953125 48.03515625 C16.19157727 49.88317206 16.18873271 51.73118987 16.18673706 53.57920837 C16.17914073 58.41740491 16.15952703 63.25547929 16.1373291 68.09362793 C16.11678405 73.04091744 16.10771691 77.9882269 16.09765625 82.93554688 C16.07627699 92.62375992 16.04112789 102.31185064 16 112 C8.74 112 1.48 112 -6 112 C-6 106.39 -6 100.78 -6 95 C-6.66 95 -7.32 95 -8 95 C-8.25136719 95.7425 -8.50273438 96.485 -8.76171875 97.25 C-11.96660045 104.36746599 -18.73775198 108.19150049 -25.75 110.9375 C-36.56223007 114.78968342 -51.11568493 116.58529133 -61.99609375 111.96484375 C-62.65738281 111.64644531 -63.31867187 111.32804687 -64 111 C-64.81597656 110.67128906 -65.63195312 110.34257813 -66.47265625 110.00390625 C-75.56019606 106.04267095 -81.34412965 99.57764467 -85.19287109 90.515625 C-86.61575826 86.08083087 -86.67949175 81.75118895 -86.625 77.125 C-86.61662109 76.15481934 -86.60824219 75.18463867 -86.59960938 74.18505859 C-86.35776283 66.53473182 -84.98074899 60.98978003 -80 55 C-79.443125 54.28070312 -78.88625 53.56140625 -78.3125 52.8203125 C-69.29571773 42.52097068 -55.10108747 37.89665503 -41.82373047 36.82421875 C-29.70136989 36.10249624 -18.68574937 37.87263099 -7 41 C-7.75143313 28.44634528 -7.75143313 28.44634528 -14 18 C-23.52659456 11.24632493 -33.68725697 11.09131611 -45 12 C-52.36307566 13.42379916 -58.17732106 16.32241212 -64.0625 20.92578125 C-66 22 -66 22 -67.953125 22.046875 C-71.08997207 20.44253337 -72.7733377 17.75440474 -74.75 14.9375 C-75.16121094 14.36966797 -75.57242188 13.80183594 -75.99609375 13.21679688 C-77.00695036 11.81805343 -78.00477206 10.40990625 -79 9 C-76.50926458 2.41113596 -68.73668829 -0.43617812 -62.9375 -3.75 C-43.14443799 -12.17257958 -18.12681755 -12.26143745 0 0 Z " fill="#7A68AF" transform="translate(990,999)"/>
<path d="M0 0 C7.01889475 6.50975213 14.47066726 16.41450141 15.16113281 26.30908203 C15.20685986 29.24784247 15.23530457 32.18591301 15.25 35.125 C15.270625 36.13304687 15.29125 37.14109375 15.3125 38.1796875 C15.36340781 48.00489556 13.37498954 55.38571184 7.00390625 62.98046875 C1.86287175 68.16158929 -2.94053736 70.27578335 -10.25 70.5 C-14.69919319 70.45291859 -17.42940185 69.70872963 -21 67 C-23.50494771 63.58835343 -23.39570382 59.87733132 -23.625 55.75 C-23.69976562 54.48671875 -23.77453125 53.2234375 -23.8515625 51.921875 C-23.90054688 50.95765625 -23.94953125 49.9934375 -24 49 C-24.66 49 -25.32 49 -26 49 C-26.01417969 49.9178125 -26.02835937 50.835625 -26.04296875 51.78125 C-26.58195322 65.64917464 -26.58195322 65.64917464 -32 71 C-36.51298559 74.44127442 -41.12175007 75.6633696 -46.76171875 75.390625 C-52.40520758 74.40572293 -57.44933998 71.50660695 -61 67 C-63.00801785 62.95527833 -63.21563269 59.67381808 -63.125 55.1875 C-63.10695313 54.02605469 -63.08890625 52.86460937 -63.0703125 51.66796875 C-63.04710937 50.78753906 -63.02390625 49.90710938 -63 49 C-63.99 49.495 -63.99 49.495 -65 50 C-65.31999996 53.236571 -65.38003656 56.45237819 -65.4609375 59.703125 C-66.10053724 63.61487992 -67.21416938 65.2240133 -70 68 C-74.54585874 71.0490516 -79.74410189 70.56287087 -85 70 C-91.99713093 68.16124778 -97.04398967 62.85945654 -101 57 C-104.18194624 50.35148388 -104.48789233 44.49438848 -104.4375 37.1875 C-104.45748047 36.17107422 -104.47746094 35.15464844 -104.49804688 34.10742188 C-104.49046009 22.2037493 -100.37719102 13.17419909 -93 4 C-92.49984375 3.37351562 -91.9996875 2.74703125 -91.484375 2.1015625 C-68.59285631 -23.449072 -24.70031025 -20.77492362 0 0 Z " fill="#332F59" transform="translate(514,373)"/>
<path d="M0 0 C9.05521724 7.65546037 15.84003383 17.81130747 18 29.625 C18.64451535 42.36541972 18.50123384 53.47398333 10 63.625 C4.86542046 68.90660495 0.11655573 71.89285027 -7.4375 72 C-12.38901928 71.91324831 -15.22493491 71.01287893 -19 67.625 C-21.42479736 63.98780395 -21.38662577 61.76796518 -21.625 57.4375 C-21.73714844 55.52904297 -21.73714844 55.52904297 -21.8515625 53.58203125 C-21.92503906 52.11830078 -21.92503906 52.11830078 -22 50.625 C-22.66 50.625 -23.32 50.625 -24 50.625 C-24.02578125 51.63820313 -24.0515625 52.65140625 -24.078125 53.6953125 C-24.13444181 55.04691597 -24.19178833 56.39847681 -24.25 57.75 C-24.26417969 58.41515625 -24.27835938 59.0803125 -24.29296875 59.765625 C-24.53988715 64.80276037 -25.85434898 67.72737766 -29 71.625 C-34.7475243 76.05538332 -38.78875769 77.11389778 -46 76.625 C-51.77356859 74.73365857 -55.81366761 72.07059805 -59.10546875 66.8828125 C-60.68470261 62.89679865 -60.46748552 58.66826289 -60.65625 54.42578125 C-60.7696875 53.50152344 -60.883125 52.57726562 -61 51.625 C-61.99 51.13 -61.99 51.13 -63 50.625 C-62.99097656 51.63820313 -62.98195313 52.65140625 -62.97265625 53.6953125 C-63.1259558 65.88490373 -63.1259558 65.88490373 -66.8125 69.5625 C-71.77033393 72.79631349 -77.33774226 72.48566318 -83 71.625 C-90.59605088 69.53930467 -95.32155482 63.98636206 -99.32421875 57.46875 C-104.10204603 47.14193734 -103.62611596 32.6978849 -101.1171875 21.78515625 C-95.55636947 7.47801848 -83.74663993 -3.12148143 -70 -9.375 C-69.09378906 -9.79007812 -68.18757812 -10.20515625 -67.25390625 -10.6328125 C-45.18479701 -19.01497086 -18.65695743 -13.56576697 0 0 Z " fill="#322E58" transform="translate(827,371.375)"/>
<path d="M0 0 C7.59 0 15.18 0 23 0 C23 10.56 23 21.12 23 32 C32.9 32 42.8 32 53 32 C53 38.27 53 44.54 53 51 C43.1 51 33.2 51 23 51 C23.0618237 62.89085795 23.0618237 62.89085795 23.16015625 74.78125 C23.20839029 79.6354196 23.25247259 84.48936424 23.27099609 89.34375 C23.28621104 93.26032022 23.32074091 97.17629943 23.36830902 101.09260559 C23.38307328 102.58196354 23.39103816 104.0714059 23.39188385 105.56083679 C23.40213839 114.57042167 23.47901652 121.91765272 29.76171875 128.98046875 C33.06757107 130.48627583 36.25469089 130.39462856 39.8125 130.3125 C40.49892578 130.31572266 41.18535156 130.31894531 41.89257812 130.32226562 C46.59381094 130.27334078 50.53462735 129.4651092 55 128 C55.33910994 130.04071515 55.67102704 132.08262621 56 134.125 C56.185625 135.26195312 56.37125 136.39890625 56.5625 137.5703125 C56.96956049 140.76137602 57.07809902 143.78817791 57 147 C45.94218664 153.07095635 33.64842282 153.96641845 21.4375 150.9375 C12.2140097 147.47670674 7.29891555 141.86263388 3.19140625 133.0625 C0.8858091 127.13598142 -0.2494507 121.96872323 -0.22705078 115.59594727 C-0.22734283 114.892668 -0.22763489 114.18938873 -0.22793579 113.46479797 C-0.22655446 111.16520377 -0.21105057 108.86594309 -0.1953125 106.56640625 C-0.1915781 104.96215492 -0.18873314 103.35790129 -0.18673706 101.75364685 C-0.17913422 97.54999392 -0.15951484 93.34648119 -0.1373291 89.1428833 C-0.11679819 84.84592586 -0.1077199 80.54894557 -0.09765625 76.25195312 C-0.07626548 67.83456419 -0.04111098 59.41731574 0 51 C-4.62 51 -9.24 51 -14 51 C-14 44.73 -14 38.46 -14 32 C-9.38 32 -4.76 32 0 32 C0 21.44 0 10.88 0 0 Z " fill="#7865AE" transform="translate(1043,961)"/>
<path d="M0 0 C4.269375 0.061875 4.269375 0.061875 8.625 0.125 C8.625 7.715 8.625 15.305 8.625 23.125 C5.386875 23.00125 2.14875 22.8775 -1.1875 22.75 C-11.03583686 22.6184065 -17.94002093 23.83971315 -25.21875 30.91796875 C-33.49999665 40.76209773 -33.97766283 52.50141279 -33.984375 64.73046875 C-33.99938627 66.3066017 -34.0161195 67.88271909 -34.03448486 69.45881653 C-34.0778407 73.57029007 -34.09808613 77.68155157 -34.11322021 81.79321289 C-34.13290705 86.00354387 -34.17486329 90.21364961 -34.21484375 94.42382812 C-34.28980114 102.65752021 -34.33823704 110.89104872 -34.375 119.125 C-41.965 119.125 -49.555 119.125 -57.375 119.125 C-57.375 80.515 -57.375 41.905 -57.375 2.125 C-50.115 2.125 -42.855 2.125 -35.375 2.125 C-35.375 8.395 -35.375 14.665 -35.375 21.125 C-34.715 21.125 -34.055 21.125 -33.375 21.125 C-33.25898437 20.54363281 -33.14296875 19.96226562 -33.0234375 19.36328125 C-30.82828767 11.7860472 -24.55614974 7.52427355 -18.15625 3.5703125 C-11.95500244 0.34775408 -6.84560931 -0.14082539 0 0 Z " fill="#322E58" transform="translate(568.375,990.875)"/>
<path d="M0 0 C0.33 0 0.66 0 1 0 C1 3.63 1 7.26 1 11 C2.98 11 4.96 11 7 11 C7 7.7 7 4.4 7 1 C7.33 1 7.66 1 8 1 C8.05607422 2.88332031 8.05607422 2.88332031 8.11328125 4.8046875 C8.17900856 6.49481821 8.24545346 8.18492111 8.3125 9.875 C8.33505859 10.69742187 8.35761719 11.51984375 8.38085938 12.3671875 C8.66529809 18.98685205 9.99540865 23.31802883 12 30 C-55.32 30 -122.64 30 -192 30 C-191.01 26.7 -190.02 23.4 -189 20 C-188.44374804 15.81560534 -188.44374804 15.81560534 -188.3125 11.875 C-188.24675781 10.57304687 -188.18101562 9.27109375 -188.11328125 7.9296875 C-188.07589844 6.96289062 -188.03851562 5.99609375 -188 5 C-187.67 5 -187.34 5 -187 5 C-187 7.31 -187 9.62 -187 12 C-185.02 12 -183.04 12 -181 12 C-181 10.02 -181 8.04 -181 6 C-180.67 6 -180.34 6 -180 6 C-180 7.98 -180 9.96 -180 12 C-120.6 12 -61.2 12 0 12 C0 8.04 0 4.08 0 0 Z " fill="#7966B0" transform="translate(717,400)"/>
<path d="M0 0 C7.92 0 15.84 0 24 0 C24 38.94 24 77.88 24 118 C16.08 118 8.16 118 0 118 C0 79.06 0 40.12 0 0 Z " fill="#35315B" transform="translate(452,993)"/>
<path d="M0 0 C2.4375 1.6875 2.4375 1.6875 4 3 C4 1.35 4 -0.3 4 -2 C7.96 -2 11.92 -2 16 -2 C14.82166985 8.29999182 13.34923331 18.49750252 11.4296875 28.68603516 C10.9671045 31.17714972 10.53092428 33.67227785 10.09375 36.16796875 C6.29060446 57.24698085 6.29060446 57.24698085 -0.75 63.9375 C-8.37655747 68.7774307 -16.0235341 70.08417056 -25 69 C-29.77319174 67.62237149 -33.87115421 65.75256386 -38 63 C-36.66511872 59.40608886 -35.03977277 56.24509304 -33 53 C-31.948125 53.66 -30.89625 54.32 -29.8125 55 C-24.24142147 57.79052234 -18.08790444 58.09517858 -12 57 C-8.51237312 54.39622377 -7.34190028 51.89922106 -6.25 47.75 C-6.00765625 46.85796875 -5.7653125 45.9659375 -5.515625 45.046875 C-5.34546875 44.37140625 -5.1753125 43.6959375 -5 43 C-5.86625 43.680625 -5.86625 43.680625 -6.75 44.375 C-11.82625518 48.0411843 -15.81046866 48.80423187 -22 48 C-27.54806368 46.34548815 -30.89612736 43.54475919 -34.08984375 38.78125 C-37.48971399 32.12742669 -36.92224735 23.07855267 -34.75 16.125 C-31.57384162 7.98700893 -26.06618266 1.98774875 -18.5625 -2.4375 C-11.66476269 -3.95163746 -6.21286196 -3.28916221 0 0 Z " fill="#342F5A" transform="translate(650,759)"/>
<path d="M0 0 C0.62173721 9.89598397 -0.44962463 18.6498634 -6.5 26.8125 C-11.78320932 32.44882871 -20.83501709 36.75908886 -28.51171875 37.203125 C-45.14078489 37.52023 -45.14078489 37.52023 -50.734375 32.41796875 C-54.64330801 28.14606339 -56.77215407 24.46073608 -57.3125 18.625 C-56.85276709 13.29209819 -55.2373191 9.57476977 -51.9375 5.375 C-37.1527057 -6.57866348 -17.33811303 -4.2398879 0 0 Z " fill="#FCFBFC" transform="translate(983,1057)"/>
<path d="M0 0 C6.18295639 2.61586617 9.21743301 8.11763526 12 14 C15.03699823 24.66608414 14.16348257 38.26060357 9 48 C6.33411076 52.26542279 3.74576088 54.2986895 -1 56 C-4.97357265 56.7251045 -8.36279385 56.87638682 -11.9921875 54.93359375 C-18.51143738 49.79933472 -21.06503079 42.86338552 -23 35 C-23.97651705 23.96308638 -23.19931995 14.50217282 -17.0625 5 C-11.78326363 -0.11925951 -7.20099226 -0.98564306 0 0 Z " fill="#FAFAFB" transform="translate(552,271)"/>
<path d="M0 0 C5.46191329 2.11028468 9.51751032 6.95204548 12.046875 12.15234375 C15.70927058 22.53488972 15.43008134 34.90925916 11 45 C8.2697257 49.91449374 5.07460281 53.4626986 0 56 C-4.02360835 56.73460069 -7.51408695 56.77204023 -11.1953125 54.859375 C-17.15896762 50.18822308 -20.28091777 44.30609947 -22 37 C-23.45319174 24.44919164 -22.37261814 13.77720308 -14.5 3.62890625 C-10.25311062 -0.98295019 -5.84076678 -0.58219862 0 0 Z " fill="#FAFAFB" transform="translate(706,271)"/>
<path d="M0 0 C5.64381919 4.60501376 10.42652235 10.53347331 12.74609375 17.4921875 C12.74609375 19.8021875 12.74609375 22.1121875 12.74609375 24.4921875 C-10.02390625 24.4921875 -32.79390625 24.4921875 -56.25390625 24.4921875 C-53.91255032 13.95608581 -49.59840991 5.44208105 -40.25390625 -0.5078125 C-27.26945584 -6.84715956 -12.50151232 -8.36323008 0 0 Z " fill="#FCFBFC" transform="translate(669.25390625,1015.5078125)"/>
<path d="M0 0 C1.14210938 -0.00257813 2.28421875 -0.00515625 3.4609375 -0.0078125 C6.05736152 0.1011732 8.16124883 0.36038757 10.625 1.125 C9.75 8.75 9.75 8.75 8.625 12.125 C7.93792969 12.04121094 7.25085938 11.95742188 6.54296875 11.87109375 C5.64191406 11.76925781 4.74085938 11.66742187 3.8125 11.5625 C2.91917969 11.45808594 2.02585937 11.35367188 1.10546875 11.24609375 C-1.50875572 10.96841291 -1.50875572 10.96841291 -4.375 12.125 C-5.40816488 14.91672239 -5.40816488 14.91672239 -6.0625 18.1875 C-6.43955078 19.84458984 -6.43955078 19.84458984 -6.82421875 21.53515625 C-7.00597656 22.38980469 -7.18773437 23.24445312 -7.375 24.125 C-3.415 24.125 0.545 24.125 4.625 24.125 C3.95833333 27.45833333 3.29166667 30.79166667 2.625 34.125 C-3.315 34.62 -3.315 34.62 -9.375 35.125 C-9.5608667 36.23423828 -9.7467334 37.34347656 -9.93823242 38.48632812 C-10.63810487 42.63435192 -11.36119631 46.77805661 -12.09106445 50.92089844 C-12.40266926 52.70822874 -12.70812052 54.49664396 -13.00708008 56.28613281 C-13.44005236 58.87099898 -13.89563868 61.45104294 -14.35546875 64.03125 C-14.48277878 64.82116333 -14.61008881 65.61107666 -14.74125671 66.42492676 C-16.00777206 73.31339771 -18.92926545 78.47510703 -23.66796875 83.609375 C-27.42093132 85.7106008 -30.46876928 85.57104468 -34.6875 85.375 C-35.42806641 85.35695313 -36.16863281 85.33890625 -36.93164062 85.3203125 C-38.7466571 85.27347337 -40.56100166 85.20173789 -42.375 85.125 C-41.5 77.375 -41.5 77.375 -40.375 75.125 C-38.08984375 74.7109375 -38.08984375 74.7109375 -35.3125 74.5 C-33.93384766 74.38785156 -33.93384766 74.38785156 -32.52734375 74.2734375 C-31.81707031 74.22445312 -31.10679687 74.17546875 -30.375 74.125 C-30.23924561 73.37516846 -30.10349121 72.62533691 -29.96362305 71.8527832 C-29.333088 68.38043763 -28.69781436 64.90897418 -28.0625 61.4375 C-27.84916016 60.25865234 -27.63582031 59.07980469 -27.41601562 57.86523438 C-25.95303254 49.89525189 -24.26612979 42.00429652 -22.375 34.125 C-25.345 34.125 -28.315 34.125 -31.375 34.125 C-31.045 30.825 -30.715 27.525 -30.375 24.125 C-27.075 24.125 -23.775 24.125 -20.375 24.125 C-20.28863281 23.42375 -20.20226562 22.7225 -20.11328125 22 C-18.91654464 13.9192831 -16.80239223 8.23356505 -10.6875 2.6875 C-6.85595696 0.09861957 -4.63304212 -0.01041133 0 0 Z " fill="#332F5A" transform="translate(637.375,530.875)"/>
<path d="M0 0 C3.3125 1.625 3.3125 1.625 6 4 C6.94875 4.825 7.8975 5.65 8.875 6.5 C11.83790622 10.2902112 11.69413297 14.37089074 11.48046875 19.01953125 C10.75005683 23.5504605 9.2316133 26.73566151 6 30 C0.90967745 33.13250618 -4.14569194 33.93112395 -10 33 C-15.45202185 30.48368222 -18.7142292 26.47229026 -21 21 C-22.08475986 15.9873597 -21.4115398 12.12644465 -18.875 7.6875 C-13.86465517 0.69534746 -8.39977593 -1.34286793 0 0 Z " fill="#37335C" transform="translate(469,934)"/>
<path d="M0 0 C2 2 2 2 2.38671875 4.3359375 C1.8647762 7.93154176 0.42380533 9.1457509 -2.1875 11.625 C-2.96480469 12.38039063 -3.74210938 13.13578125 -4.54296875 13.9140625 C-7 16 -7 16 -9.75 17.32421875 C-12.36195618 18.88385105 -12.36195618 18.88385105 -12.70703125 22.35546875 C-12.74183594 23.62003906 -12.77664063 24.88460938 -12.8125 26.1875 C-12.86019531 27.45980469 -12.90789063 28.73210937 -12.95703125 30.04296875 C-12.97830078 31.50669922 -12.97830078 31.50669922 -13 33 C-14.65614657 33.38218767 -16.32457024 33.71395102 -18 34 C-19.84930524 32.15069476 -19.04440296 28.78662354 -19.0625 26.3125 C-19.27314314 21.2409993 -19.27314314 21.2409993 -21.6328125 16.94921875 C-23.69537958 15.49444235 -25.80834158 14.24952474 -28 13 C-31.07049361 10.52171899 -33.65791931 8.30612629 -34.6875 4.375 C-33.68927187 0.92657556 -32.0057873 -0.12973235 -29 -2 C-19.92861062 -4.42328855 -8.45931074 -4.4012643 0 0 Z " fill="#F7F7F9" transform="translate(641,326)"/>
<path d="M0 0 C3.43132726 2.87111056 4.76916965 4.71760919 5.5625 9.125 C4.60921068 15.69210419 3.26209529 23.3906723 -1.625 28.25 C-6.05236322 30.54566982 -10.09417307 31.01325169 -15 30 C-17.47810213 28.08434352 -17.98432759 27.04701722 -19 24 C-19.72427483 17.01592126 -19.71569041 11.38170305 -15.41015625 5.625 C-10.88864824 0.41461958 -6.90303461 -1.63525775 0 0 Z " fill="#7665AC" transform="translate(646,766)"/>
<path d="M0 0 C0.66 1.32 1.32 2.64 2 4 C-6.91 4 -15.82 4 -25 4 C-25 3.34 -25 2.68 -25 2 C-16.75 2 -8.5 2 0 2 C0 1.34 0 0.68 0 0 Z " fill="#2D2952" transform="translate(266,1106)"/>
<path d="M0 0 C1.03125 0.00322266 2.0625 0.00644531 3.125 0.00976562 C4.74535156 0.02233398 4.74535156 0.02233398 6.3984375 0.03515625 C8.03039062 0.04192383 8.03039062 0.04192383 9.6953125 0.04882812 C12.38807539 0.06063849 15.08072938 0.07710847 17.7734375 0.09765625 C17.7734375 0.42765625 17.7734375 0.75765625 17.7734375 1.09765625 C16.83491943 1.13524048 16.83491943 1.13524048 15.87744141 1.17358398 C13.05089131 1.28940898 10.22468581 1.4121961 7.3984375 1.53515625 C5.92117188 1.59413086 5.92117188 1.59413086 4.4140625 1.65429688 C3.00253906 1.71713867 3.00253906 1.71713867 1.5625 1.78125 C0.69318848 1.81790771 -0.17612305 1.85456543 -1.07177734 1.89233398 C-3.2748887 1.97167169 -3.2748887 1.97167169 -5.2265625 3.09765625 C-5.8865625 2.43765625 -6.5465625 1.77765625 -7.2265625 1.09765625 C-4.66933021 -0.1809599 -2.85919148 -0.01570984 0 0 Z " fill="#8675B8" transform="translate(554.2265625,490.90234375)"/>
<path d="M0 0 C0.33 0.99 0.66 1.98 1 3 C-0.375 4.5 -0.375 4.5 -2 6 C-2.66 6 -3.32 6 -4 6 C-4 6.99 -4 7.98 -4 9 C-5.65 9.66 -7.3 10.32 -9 11 C-6.36113346 6.7973607 -3.63559661 3.43361902 0 0 Z " fill="#454268" transform="translate(741,372)"/>
<path d="M0 0 C3.13190982 1.0799689 4.00599212 2.00950474 5.8125 4.875 C7.05537349 8.1457197 7.00271664 8.84860486 6 12 C5.73445312 11.36191406 5.46890625 10.72382812 5.1953125 10.06640625 C4.84210937 9.24011719 4.48890625 8.41382812 4.125 7.5625 C3.77695312 6.73878906 3.42890625 5.91507812 3.0703125 5.06640625 C2.1755063 2.84253285 2.1755063 2.84253285 0 2 C0 1.34 0 0.68 0 0 Z " fill="#4A486E" transform="translate(781,115)"/>
<path d="M0 0 C0 0.66 0 1.32 0 2 C1.65 1.67 3.3 1.34 5 1 C5 1.66 5 2.32 5 3 C5.99 3.33 6.98 3.66 8 4 C-2.55808656 3.03644647 -2.55808656 3.03644647 -7 2 C-7 1.67 -7 1.34 -7 1 C-2.25 0 -2.25 0 0 0 Z " fill="#666382" transform="translate(420,303)"/>
<path d="M0 0 C3.40312738 1.05875074 6.01353231 2.00902154 9 4 C9 4.66 9 5.32 9 6 C2.42696629 4.1011236 2.42696629 4.1011236 0 1 C0 0.67 0 0.34 0 0 Z " fill="#4A476A" transform="translate(499,354)"/>
<path d="M0 0 C0.66 0.66 1.32 1.32 2 2 C-1.465 4.97 -1.465 4.97 -5 8 C-5 5 -5 5 -2.5 2.3125 C-1.675 1.549375 -0.85 0.78625 0 0 Z " fill="#806EB2" transform="translate(757,956)"/>
<path d="M0 0 C0.33 0.99 0.66 1.98 1 3 C-0.32 4.32 -1.64 5.64 -3 7 C-3.99 6.67 -4.98 6.34 -6 6 C-4 4 -2 2 0 0 Z " fill="#413F66" transform="translate(923,512)"/>
<path d="M0 0 C-1.32 0.33 -2.64 0.66 -4 1 C-4 1.66 -4 2.32 -4 3 C-6.97 2.67 -9.94 2.34 -13 2 C-13 1.67 -13 1.34 -13 1 C-8.59085217 -0.10228696 -4.51617599 -0.07654536 0 0 Z " fill="#656283" transform="translate(990,258)"/>
<path d="M0 0 C0.99 0.33 1.98 0.66 3 1 C0.6875 3.5 0.6875 3.5 -2 6 C-2.99 6 -3.98 6 -5 6 C-3.35 4.02 -1.7 2.04 0 0 Z " fill="#3E3C62" transform="translate(735,146)"/>
<path d="M0 0 C0.66 0.66 1.32 1.32 2 2 C-3.5 5.125 -3.5 5.125 -8 4 C-5.36 2.68 -2.72 1.36 0 0 Z " fill="#8473B4" transform="translate(446,764)"/>
<path d="M0 0 C-0.33 0.99 -0.66 1.98 -1 3 C-3.97 2.67 -6.94 2.34 -10 2 C-10 1.67 -10 1.34 -10 1 C-6.59437148 0.22157062 -3.49234244 -0.09978121 0 0 Z " fill="#3D3A63" transform="translate(432,331)"/>
<path d="M0 0 C0.66 0.99 1.32 1.98 2 3 C0.35 4.65 -1.3 6.3 -3 8 C-3.66 7.67 -4.32 7.34 -5 7 C-3.35 4.69 -1.7 2.38 0 0 Z " fill="#444268" transform="translate(935,498)"/>
<path d="M0 0 C0.99 0.66 1.98 1.32 3 2 C0.47524538 3.26237731 -1.31200466 3.09856404 -4.125 3.0625 C-5.03507812 3.05347656 -5.94515625 3.04445313 -6.8828125 3.03515625 C-7.58148438 3.02355469 -8.28015625 3.01195312 -9 3 C-8.67 2.34 -8.34 1.68 -8 1 C-6.865625 1.020625 -5.73125 1.04125 -4.5625 1.0625 C-1.18424326 1.41577477 -1.18424326 1.41577477 0 0 Z " fill="#474268" transform="translate(403,343)"/>
<path d="M0 0 C0.66 0.99 1.32 1.98 2 3 C0.35 4.32 -1.3 5.64 -3 7 C-3.33 6.01 -3.66 5.02 -4 4 C-2.68 2.68 -1.36 1.36 0 0 Z " fill="#46436A" transform="translate(939,279)"/>
<path d="M0 0 C2.25 0.25 2.25 0.25 4 1 C1.6875 3.0625 1.6875 3.0625 -1 5 C-1.99 4.67 -2.98 4.34 -4 4 C-2.25 1.9375 -2.25 1.9375 0 0 Z " fill="#403E65" transform="translate(712,167)"/>
<path d="M0 0 C0.99 0.33 1.98 0.66 3 1 C1.625 2.5 1.625 2.5 0 4 C-0.66 4 -1.32 4 -2 4 C-2.33 4.99 -2.66 5.98 -3 7 C-3.66 6.34 -4.32 5.68 -5 5 C-3.35 3.35 -1.7 1.7 0 0 Z " fill="#424065" transform="translate(725,155)"/>
<path d="M0 0 C0.99 0.66 1.98 1.32 3 2 C0.1875 3.5625 0.1875 3.5625 -3 5 C-3.99 4.67 -4.98 4.34 -6 4 C-4.02 2.68 -2.04 1.36 0 0 Z " fill="#434168" transform="translate(769,119)"/>
<path d="M0 0 C-2.13562754 2.13562754 -3.06546739 2.63318342 -6 3 C-6.66 2.34 -7.32 1.68 -8 1 C-4.93251126 -0.86240388 -3.40254489 -1.2151946 0 0 Z " fill="#8877B9" transform="translate(934,995)"/>
<path d="M0 0 C1.42944945 2.35438733 2.08661261 3.48032433 1.625 6.25 C1.41875 6.8275 1.2125 7.405 1 8 C0.34 8 -0.32 8 -1 8 C-0.67 5.36 -0.34 2.72 0 0 Z " fill="#3E3B64" transform="translate(944,475)"/>
</svg>
